<svg width="162" height="411" viewBox="0 0 162 411" fill="none" xmlns="http://www.w3.org/2000/svg">
<path d="M142.377 308.15C126.71 279.441 111.79 254.147 107.56 188.38H57.0558C52.8228 254.147 38.2658 278.582 22.3848 308.15H142.377Z" fill="url(#paint0_linear_15_506)"/>
<path d="M83.165 52.4128C97.445 52.4128 109.014 40.8388 109.014 26.5598C109.014 12.2888 97.446 0.714844 83.165 0.714844C68.888 0.714844 57.313 12.2888 57.313 26.5598C57.313 40.8388 68.888 52.4128 83.165 52.4128Z" fill="url(#paint1_linear_15_506)"/>
<path d="M159.464 410.6C159.464 410.6 159.102 404.391 157.94 401.43C156.783 398.463 152.779 395.166 152.779 395.166H8.92291C8.92291 395.166 4.94096 398.075 3.59796 401.214C2.25296 404.35 2.23193 410.6 2.23193 410.6H159.464Z" fill="url(#paint2_linear_15_506)"/>
<path d="M151.868 393.017C158.209 384.899 161.883 375.093 161.107 362.84C160.312 350.234 153.344 336.425 146.134 325.815H17.0147C10.7657 335.461 1.49571 347.98 0.590714 360.423C-0.315286 372.87 3.4887 384.899 9.8307 393.017H151.868Z" fill="url(#paint3_linear_15_506)"/>
<path d="M151.263 316.636C150.054 311.806 145.623 310.75 144.053 310.75C142.886 310.75 102.856 310.75 84.833 310.75C84.833 310.75 80.573 310.75 74.264 310.75C56.244 310.75 21.365 310.75 20.197 310.75C18.626 310.75 14.196 311.806 12.989 316.636C11.941 320.501 15.968 323.601 17.622 323.666C18.606 323.677 61.525 323.671 79.547 323.666C97.576 323.671 145.642 323.677 146.627 323.666C148.282 323.601 152.307 320.501 151.263 316.636Z" fill="url(#paint4_linear_15_506)"/>
<path d="M147.076 61.5548C142.568 55.1158 135.805 55.2758 132.908 56.0808C130.009 56.8868 124.375 61.5548 117.773 61.5548C112.041 61.5548 106.503 59.1418 101.895 56.1418C101.249 55.6158 100.626 55.1228 100.026 54.6808L99.8937 54.7758L99.7437 54.6648C99.4157 54.9048 99.0937 55.2158 98.7777 55.5638C94.0397 58.8928 88.3347 62.2008 82.2757 62.2008C75.6277 62.2008 69.5467 58.3098 64.5597 54.6648C59.5747 58.3108 53.1777 61.5558 46.5307 61.5558C39.9297 61.5558 34.2947 56.8878 31.3967 56.0818C28.4977 55.2758 21.7387 55.1158 17.2297 61.5558C10.9807 70.4788 17.3817 77.9058 22.0607 81.2018C36.6547 91.4678 55.2357 124.591 52.8737 161.609C44.9057 161.609 38.3727 161.609 37.9577 161.609C36.8607 161.609 28.3747 164.955 27.5307 174.257C26.8027 181.702 35.0047 186.357 36.1647 186.486C36.8437 186.5 66.8287 186.495 79.4187 186.486C92.0127 186.495 125.591 186.5 126.276 186.486C127.433 186.356 135.166 182.342 134.438 174.901C133.589 165.595 125.578 161.608 124.48 161.608C124.124 161.608 118.568 161.608 111.383 161.608L111.422 161.331C109.168 124.425 127.685 91.4358 142.245 81.2008C146.922 77.9038 153.325 70.4778 147.076 61.5548Z" fill="url(#paint5_linear_15_506)"/>
<defs>
<linearGradient id="paint0_linear_15_506" x1="23.0352" y1="248.309" x2="143.045" y2="248.309" gradientUnits="userSpaceOnUse">
<stop stop-color="#231F20"/>
<stop offset="0.1333" stop-color="#231F20"/>
<stop offset="0.5731" stop-color="#373637"/>
<stop offset="1" stop-color="#49494B"/>
</linearGradient>
<linearGradient id="paint1_linear_15_506" x1="57.5695" y1="26.5696" x2="109.266" y2="26.5696" gradientUnits="userSpaceOnUse">
<stop stop-color="#231F20"/>
<stop offset="0.1333" stop-color="#231F20"/>
<stop offset="0.5731" stop-color="#373637"/>
<stop offset="1" stop-color="#49494B"/>
</linearGradient>
<linearGradient id="paint2_linear_15_506" x1="1.76036" y1="402.927" x2="158.985" y2="402.927" gradientUnits="userSpaceOnUse">
<stop stop-color="#231F20"/>
<stop offset="0.1333" stop-color="#231F20"/>
<stop offset="0.5731" stop-color="#373637"/>
<stop offset="1" stop-color="#49494B"/>
</linearGradient>
<linearGradient id="paint3_linear_15_506" x1="0.1052" y1="359.526" x2="160.85" y2="359.526" gradientUnits="userSpaceOnUse">
<stop stop-color="#231F20"/>
<stop offset="0.1333" stop-color="#231F20"/>
<stop offset="0.5731" stop-color="#373637"/>
<stop offset="1" stop-color="#49494B"/>
</linearGradient>
<linearGradient id="paint4_linear_15_506" x1="13.6933" y1="317.273" x2="152.303" y2="317.273" gradientUnits="userSpaceOnUse">
<stop stop-color="#231F20"/>
<stop offset="0.1333" stop-color="#231F20"/>
<stop offset="0.5731" stop-color="#373637"/>
<stop offset="1" stop-color="#49494B"/>
</linearGradient>
<linearGradient id="paint5_linear_15_506" x1="13.4561" y1="120.556" x2="148.49" y2="120.556" gradientUnits="userSpaceOnUse">
<stop stop-color="#231F20"/>
<stop offset="0.1333" stop-color="#231F20"/>
<stop offset="0.5731" stop-color="#373637"/>
<stop offset="1" stop-color="#49494B"/>
</linearGradient>
</defs>
</svg>
