<svg width="170" height="435" viewBox="0 0 170 435" fill="none" xmlns="http://www.w3.org/2000/svg">
<path d="M167.522 434.541C167.522 434.541 167.155 428.197 165.998 425.175C164.837 422.151 160.832 418.777 160.832 418.777H22.1299C22.1299 418.777 18.1489 421.75 16.8029 424.957C15.4629 428.159 15.4409 434.542 15.4409 434.542H167.522V434.541Z" fill="url(#paint0_linear_15_503)"/>
<path d="M159.925 416.582C166.263 408.286 169.937 398.275 169.162 385.756C168.366 372.881 161.397 358.776 154.187 347.935H30.2207C23.9737 357.79 14.7037 370.583 13.7997 383.294C12.8937 396.004 16.6987 408.286 23.0377 416.582H159.925Z" fill="url(#paint1_linear_15_503)"/>
<path d="M159.314 338.562C158.107 333.626 153.681 332.552 152.103 332.552C150.94 332.552 116.061 332.552 98.0408 332.552C98.0408 332.552 93.7778 332.552 87.4688 332.552C69.4438 332.552 34.5678 332.552 33.4048 332.552C31.8298 332.552 27.4048 333.626 26.1958 338.562C25.1508 342.507 29.1728 345.676 30.8288 345.744C31.8078 345.755 74.7298 345.747 92.7568 345.747C110.778 345.747 153.7 345.755 154.68 345.744C156.337 345.676 160.362 342.507 159.314 338.562Z" fill="url(#paint2_linear_15_503)"/>
<path d="M150.81 330.59C135.342 295.266 120.6 275.822 116.421 209.13H66.5428C62.3658 275.822 49.8708 295.266 34.4038 330.59H150.81Z" fill="url(#paint3_linear_15_503)"/>
<path fill-rule="evenodd" clip-rule="evenodd" d="M105.496 11.767C101.306 16.053 96.352 17.922 94.431 15.942C92.511 13.976 94.333 8.92002 98.513 4.65002C99.085 4.05102 99.672 3.53101 100.271 3.03601C97.429 1.35301 94.145 0.395996 90.636 0.395996C87.133 0.395996 83.846 1.35901 81.01 3.03601C81.695 3.56801 82.361 4.18502 83.01 4.84802C87.187 9.13202 89.021 14.189 87.092 16.155C85.167 18.119 80.217 16.242 76.037 11.984C75.35 11.278 74.732 10.572 74.182 9.84601C72.421 12.819 71.395 16.325 71.395 20.069C71.395 23.638 72.331 27.026 73.972 29.908C74.503 29.257 75.064 28.595 75.699 27.958C79.876 23.687 84.822 21.817 86.761 23.787C88.678 25.763 86.855 30.826 82.668 35.094C82.029 35.742 81.346 36.354 80.686 36.89C83.588 38.698 87.002 39.73 90.637 39.73C94.23 39.724 97.595 38.725 100.476 36.977C99.758 36.407 99.053 35.789 98.37 35.079C94.19 30.809 92.361 25.754 94.286 23.788C96.212 21.807 101.161 23.687 105.346 27.959C106.035 28.651 106.656 29.371 107.206 30.105C108.911 27.164 109.897 23.729 109.897 20.058C109.897 16.35 108.89 12.875 107.13 9.914C106.648 10.527 106.092 11.169 105.496 11.767Z" fill="url(#paint4_linear_15_503)"/>
<path d="M155.5 85.4C155.5 72.558 145.307 62.1459 132.738 62.1459C129.107 62.1459 123.461 62.155 119.821 62.155C119.821 62.155 119.821 58.0109 119.821 56.4449C119.821 52.7689 116.903 49.783 113.304 49.783C107.467 49.783 76.7367 49.783 69.6717 49.783C66.0727 49.783 63.1557 52.7689 63.1557 56.4449C63.1557 58.0109 63.1557 62.155 63.1557 62.155C59.5107 62.155 53.8657 62.1459 50.2347 62.1459C37.6647 62.1459 27.4717 72.558 27.4717 85.4C27.4717 91.027 29.9627 96.7419 32.6927 101.154C36.4847 107.29 60.9687 143.847 60.9687 143.847L58.7237 183.503C54.8287 183.503 52.1077 183.503 51.8617 183.503C50.8527 183.503 43.0647 186.638 42.2897 195.36C41.6177 202.341 49.1497 206.702 50.2147 206.829C50.8387 206.843 78.3567 206.832 89.9127 206.832C101.472 206.832 132.298 206.843 132.926 206.829C133.99 206.702 141.085 202.939 140.411 195.966C139.635 187.242 132.281 183.503 131.276 183.503C131.038 183.503 128.267 183.503 124.246 183.503L122.31 142.861C122.31 142.861 146.485 107.289 150.281 101.153C153.011 96.742 155.5 91.027 155.5 85.4Z" fill="url(#paint5_linear_15_503)"/>
<defs>
<linearGradient id="paint0_linear_15_503" x1="14.321" y1="426.695" x2="166.395" y2="426.695" gradientUnits="userSpaceOnUse">
<stop stop-color="#231F20"/>
<stop offset="0.1333" stop-color="#231F20"/>
<stop offset="0.5731" stop-color="#373637"/>
<stop offset="1" stop-color="#49494B"/>
</linearGradient>
<linearGradient id="paint1_linear_15_503" x1="14.4039" y1="382.312" x2="169.994" y2="382.312" gradientUnits="userSpaceOnUse">
<stop stop-color="#231F20"/>
<stop offset="0.1333" stop-color="#231F20"/>
<stop offset="0.5731" stop-color="#373637"/>
<stop offset="1" stop-color="#49494B"/>
</linearGradient>
<linearGradient id="paint2_linear_15_503" x1="25.4874" y1="339.166" x2="158.966" y2="339.166" gradientUnits="userSpaceOnUse">
<stop stop-color="#231F20"/>
<stop offset="0.1333" stop-color="#231F20"/>
<stop offset="0.5731" stop-color="#373637"/>
<stop offset="1" stop-color="#49494B"/>
</linearGradient>
<linearGradient id="paint3_linear_15_503" x1="33.5259" y1="269.935" x2="149.923" y2="269.935" gradientUnits="userSpaceOnUse">
<stop stop-color="#231F20"/>
<stop offset="0.1333" stop-color="#231F20"/>
<stop offset="0.5731" stop-color="#373637"/>
<stop offset="1" stop-color="#49494B"/>
</linearGradient>
<linearGradient id="paint4_linear_15_503" x1="71.1171" y1="20.0584" x2="109.614" y2="20.0584" gradientUnits="userSpaceOnUse">
<stop stop-color="#231F20"/>
<stop offset="0.1333" stop-color="#231F20"/>
<stop offset="0.5731" stop-color="#373637"/>
<stop offset="1" stop-color="#49494B"/>
</linearGradient>
<linearGradient id="paint5_linear_15_503" x1="26.7625" y1="128.355" x2="154.808" y2="128.355" gradientUnits="userSpaceOnUse">
<stop stop-color="#231F20"/>
<stop offset="0.1333" stop-color="#231F20"/>
<stop offset="0.5731" stop-color="#373637"/>
<stop offset="1" stop-color="#49494B"/>
</linearGradient>
</defs>
</svg>
