<svg width="140" height="377" viewBox="0 0 140 377" fill="none" xmlns="http://www.w3.org/2000/svg">
<path d="M21.0977 261.599C32.2787 239.007 46.8937 206.548 47.9977 180.498H94.3057C95.4027 206.548 111.158 239.649 121.711 261.599H21.0977Z" fill="url(#paint0_linear_15_507)"/>
<path d="M97.9438 132.774C101.725 132.774 104.795 129.546 104.795 125.552C104.795 121.565 101.739 118.29 97.9528 118.29C109.407 107.548 113.489 86.3899 108.672 75.3499C100.905 57.5509 92.4508 47.6479 76.5538 24.0119C80.6668 21.9249 83.0008 17.6429 83.0008 12.5059C83.0008 5.35686 77.7768 0.723877 70.9938 0.723877C64.2108 0.723877 60.2278 5.35686 60.2278 12.5059C60.2278 17.6429 61.7918 21.9249 65.9068 24.0119C61.5628 30.4609 54.7928 40.2269 51.5928 45.0399L62.7128 69.4619C62.7128 69.4619 64.7828 73.2789 61.1548 73.3899C57.9348 73.4849 57.2178 69.9029 57.2178 69.9029L48.3977 50.3879C43.3167 58.5029 37.2128 65.9389 33.1128 75.3499C28.2948 86.3899 33.0469 107.548 44.5029 118.29C40.7219 118.29 37.6598 121.564 37.6598 125.552C37.6598 129.546 40.7288 132.774 44.5158 132.774C52.2118 132.774 90.2048 132.774 97.9438 132.774Z" fill="url(#paint1_linear_15_507)"/>
<path d="M136.124 376.6C136.124 376.6 135.815 369.589 134.835 366.243C133.856 362.902 130.473 359.172 130.473 359.172H8.90802C8.90802 359.172 5.54299 362.463 4.39899 366.005C3.26899 369.549 3.24902 376.601 3.24902 376.601H136.124V376.6Z" fill="url(#paint2_linear_15_507)"/>
<path d="M129.703 356.746C135.059 347.586 140.375 335.054 139.724 321.218C139.056 306.979 130.943 292.863 124.859 280.875H15.743C10.459 291.773 0.955973 305.883 0.192973 319.932C-0.571027 333.983 4.31199 347.586 9.66899 356.746H129.703Z" fill="url(#paint3_linear_15_507)"/>
<path d="M130.308 270.505C129.283 265.05 124.425 263.872 123.098 263.872C122.112 263.872 88.2848 263.872 73.0508 263.872C73.0508 263.872 69.4498 263.872 64.1188 263.872C48.8918 263.872 19.4168 263.872 18.4308 263.872C17.1018 263.872 12.5478 265.211 11.5228 270.667C10.6418 275.024 14.8548 278.377 16.2548 278.454C17.0828 278.465 53.3538 278.454 68.5898 278.454C83.8158 278.454 124.444 278.465 125.273 278.454C126.674 278.377 131.188 274.865 130.308 270.505Z" fill="url(#paint4_linear_15_507)"/>
<path d="M113.949 168.771C113.284 161.592 107.022 158.517 106.168 158.517C105.925 158.517 102.522 158.517 97.8869 158.517V134.934H44.415V158.517C41.092 158.517 38.77 158.517 38.555 158.517C37.701 158.517 31.07 161.101 30.41 168.277C29.839 174.019 36.247 177.609 37.154 177.711C37.687 177.722 61.1169 177.717 70.9529 177.714C80.7929 177.717 107.036 177.722 107.566 177.711C108.475 177.608 114.514 174.514 113.949 168.771Z" fill="url(#paint5_linear_15_507)"/>
<defs>
<linearGradient id="paint0_linear_15_507" x1="21.7609" y1="221.083" x2="122.389" y2="221.083" gradientUnits="userSpaceOnUse">
<stop stop-color="#231F20"/>
<stop offset="0.1333" stop-color="#231F20"/>
<stop offset="0.5731" stop-color="#373637"/>
<stop offset="1" stop-color="#49494B"/>
</linearGradient>
<linearGradient id="paint1_linear_15_507" x1="31.3699" y1="66.7575" x2="110.781" y2="66.7575" gradientUnits="userSpaceOnUse">
<stop stop-color="#231F20"/>
<stop offset="0.1333" stop-color="#231F20"/>
<stop offset="0.5731" stop-color="#373637"/>
<stop offset="1" stop-color="#49494B"/>
</linearGradient>
<linearGradient id="paint2_linear_15_507" x1="3.84658" y1="367.922" x2="136.712" y2="367.922" gradientUnits="userSpaceOnUse">
<stop stop-color="#231F20"/>
<stop offset="0.1333" stop-color="#231F20"/>
<stop offset="0.5731" stop-color="#373637"/>
<stop offset="1" stop-color="#49494B"/>
</linearGradient>
<linearGradient id="paint3_linear_15_507" x1="0.438703" y1="318.809" x2="140.098" y2="318.809" gradientUnits="userSpaceOnUse">
<stop stop-color="#231F20"/>
<stop offset="0.1333" stop-color="#231F20"/>
<stop offset="0.5731" stop-color="#373637"/>
<stop offset="1" stop-color="#49494B"/>
</linearGradient>
<linearGradient id="paint4_linear_15_507" x1="10.9272" y1="271.148" x2="129.92" y2="271.148" gradientUnits="userSpaceOnUse">
<stop stop-color="#231F20"/>
<stop offset="0.1333" stop-color="#231F20"/>
<stop offset="0.5731" stop-color="#373637"/>
<stop offset="1" stop-color="#49494B"/>
</linearGradient>
<linearGradient id="paint5_linear_15_507" x1="31.4139" y1="156.295" x2="115.037" y2="156.295" gradientUnits="userSpaceOnUse">
<stop stop-color="#231F20"/>
<stop offset="0.1333" stop-color="#231F20"/>
<stop offset="0.5731" stop-color="#373637"/>
<stop offset="1" stop-color="#49494B"/>
</linearGradient>
</defs>
</svg>
