<svg width="136" height="295" viewBox="0 0 136 295" fill="none" xmlns="http://www.w3.org/2000/svg">
<path d="M134.128 294.6C134.128 294.6 133.79 288.763 132.732 285.983C131.668 283.194 128.001 280.091 128.001 280.091H8.41708C8.41708 280.091 4.7661 282.829 3.5351 285.779C2.3021 288.729 2.28809 294.6 2.28809 294.6H134.128Z" fill="url(#paint0_linear_15_502)"/>
<path d="M127.166 278.072C132.975 270.445 136.344 261.234 135.632 249.716C134.904 237.862 128.517 224.896 121.907 214.914H15.832C10.103 223.987 1.61299 235.753 0.784995 247.449C-0.0480051 259.144 3.43599 270.445 9.24999 278.072H127.166V278.072Z" fill="url(#paint1_linear_15_502)"/>
<path d="M126.606 206.296C125.503 201.758 121.448 200.765 120.002 200.765C118.938 200.765 86.9671 200.765 70.4491 200.765C70.4491 200.765 66.5471 200.765 60.7641 200.765C44.2451 200.765 19.8181 200.765 18.7491 200.765C17.3061 200.765 13.2512 201.758 12.1402 206.296C11.1812 209.922 14.8742 212.839 16.3902 212.902C17.2912 212.908 49.0891 212.902 65.6111 212.902C82.1271 212.902 121.463 212.908 122.361 212.902C123.878 212.839 127.566 209.922 126.606 206.296Z" fill="url(#paint2_linear_15_502)"/>
<path d="M108.611 107.617C109.657 107.467 120.075 102.037 119.411 93.2469C118.647 82.2539 107.982 78.2329 106.985 78.2329C106.516 78.2329 96 78.2329 85.505 78.2329L85.478 77.931C98.993 71.368 108.297 57.3639 108.297 41.2009C108.297 18.7259 90.275 0.512939 68.055 0.512939C45.825 0.512939 27.808 18.7259 27.808 41.2009C27.808 57.3639 37.117 71.368 50.625 77.931L50.601 78.2329C40.204 78.2329 29.313 78.2329 28.801 78.2329C27.805 78.2329 17.565 82.2589 16.799 93.2469C16.143 102.037 26.129 107.467 27.177 107.617C27.547 107.634 37.666 107.634 48.109 107.629C44.128 132.161 31.784 173.573 21.238 198.546H118.553C106.982 176.79 91.988 132.175 87.995 107.629C98.497 107.634 108.264 107.634 108.611 107.617Z" fill="url(#paint3_linear_15_502)"/>
<defs>
<linearGradient id="paint0_linear_15_502" x1="1.34838" y1="287.288" x2="133.183" y2="287.288" gradientUnits="userSpaceOnUse">
<stop stop-color="#231F20"/>
<stop offset="0.1333" stop-color="#231F20"/>
<stop offset="0.5731" stop-color="#373637"/>
<stop offset="1" stop-color="#49494B"/>
</linearGradient>
<linearGradient id="paint1_linear_15_502" x1="-0.217804" y1="246.544" x2="134.841" y2="246.544" gradientUnits="userSpaceOnUse">
<stop stop-color="#231F20"/>
<stop offset="0.1333" stop-color="#231F20"/>
<stop offset="0.5731" stop-color="#373637"/>
<stop offset="1" stop-color="#49494B"/>
</linearGradient>
<linearGradient id="paint2_linear_15_502" x1="11.7313" y1="206.814" x2="126.523" y2="206.814" gradientUnits="userSpaceOnUse">
<stop stop-color="#231F20"/>
<stop offset="0.1333" stop-color="#231F20"/>
<stop offset="0.5731" stop-color="#373637"/>
<stop offset="1" stop-color="#49494B"/>
</linearGradient>
<linearGradient id="paint3_linear_15_502" x1="15.9263" y1="99.5014" x2="118.61" y2="99.5014" gradientUnits="userSpaceOnUse">
<stop stop-color="#231F20"/>
<stop offset="0.1333" stop-color="#231F20"/>
<stop offset="0.5731" stop-color="#373637"/>
<stop offset="1" stop-color="#49494B"/>
</linearGradient>
</defs>
</svg>
