<svg width="169" height="332" viewBox="0 0 169 332" fill="none" xmlns="http://www.w3.org/2000/svg">
<path d="M19.9152 225.562H125.722L131.716 177.731C106.964 157.855 80.6502 120.511 81.5882 85.223C81.7542 79.026 87.0621 79.744 87.2291 84.193C87.5441 92.762 92.4881 107.683 110.724 102.699C120.754 99.954 130.848 99.153 138.292 102.014C145.549 104.796 146.963 108.18 153.566 111.53C153.566 111.53 160.316 105.219 165.157 95.771C169.636 87.046 172.443 80.856 160.316 72.666C149.662 65.468 135.106 48.286 130.169 36.1C126.41 26.801 120.665 21.511 116.265 19.208C117.827 14.069 122.685 9.355 112.365 0.479004C109.027 2.912 105.59 5.76497 102.424 9.44397C85.2911 3.96897 57.7922 7.55502 38.5242 21.934C-15.2888 62.098 -3.14981 194.422 19.9152 225.562Z" fill="url(#paint0_linear_15_509)"/>
<path d="M141.026 331.6C141.026 331.6 140.672 325.17 139.557 322.1C138.43 319.031 134.56 315.61 134.56 315.61H8.42688C8.42688 315.61 4.57488 318.628 3.27588 321.877C1.98088 325.13 1.96191 331.601 1.96191 331.601H141.026V331.6Z" fill="url(#paint1_linear_15_509)"/>
<path d="M133.678 313.18C139.812 304.77 143.36 294.618 142.618 281.925C141.84 268.862 135.106 254.571 128.14 243.575H16.2478C10.2088 253.564 1.24867 266.536 0.376665 279.422C-0.506335 292.316 3.17574 304.77 9.30074 313.18H133.678Z" fill="url(#paint2_linear_15_509)"/>
<path d="M133.095 234.279C131.932 229.28 127.648 228.183 126.129 228.183C124.996 228.183 91.2826 228.183 73.8596 228.183C73.8596 228.183 69.7446 228.183 63.6416 228.183C46.2156 228.183 20.4536 228.183 19.3226 228.183C17.8056 228.183 13.5266 229.28 12.3556 234.279C11.3456 238.283 15.2336 241.488 16.8346 241.563C17.7876 241.571 51.3256 241.569 68.7536 241.569C86.1756 241.569 127.667 241.571 128.613 241.563C130.216 241.488 134.107 238.283 133.095 234.279Z" fill="url(#paint3_linear_15_509)"/>
<defs>
<linearGradient id="paint0_linear_15_509" x1="-0.575896" y1="113.028" x2="168.096" y2="113.028" gradientUnits="userSpaceOnUse">
<stop stop-color="#231F20"/>
<stop offset="0.1333" stop-color="#231F20"/>
<stop offset="0.5731" stop-color="#373637"/>
<stop offset="1" stop-color="#49494B"/>
</linearGradient>
<linearGradient id="paint1_linear_15_509" x1="2.73056" y1="323.623" x2="141.815" y2="323.623" gradientUnits="userSpaceOnUse">
<stop stop-color="#231F20"/>
<stop offset="0.1333" stop-color="#231F20"/>
<stop offset="0.5731" stop-color="#373637"/>
<stop offset="1" stop-color="#49494B"/>
</linearGradient>
<linearGradient id="paint2_linear_15_509" x1="1.22537" y1="278.398" x2="143.687" y2="278.398" gradientUnits="userSpaceOnUse">
<stop stop-color="#231F20"/>
<stop offset="0.1333" stop-color="#231F20"/>
<stop offset="0.5731" stop-color="#373637"/>
<stop offset="1" stop-color="#49494B"/>
</linearGradient>
<linearGradient id="paint3_linear_15_509" x1="13.3796" y1="234.923" x2="134.44" y2="234.923" gradientUnits="userSpaceOnUse">
<stop stop-color="#231F20"/>
<stop offset="0.1333" stop-color="#231F20"/>
<stop offset="0.5731" stop-color="#373637"/>
<stop offset="1" stop-color="#49494B"/>
</linearGradient>
</defs>
</svg>
