<svg width="115" height="213" viewBox="0 0 115 213" fill="none" xmlns="http://www.w3.org/2000/svg">
<path d="M25.4299 39.7589C25.4859 39.7469 17.913 34.553 12.762 23.106C8.02296 12.579 7.13995 2.25297 7.02295 0.542969H31.7249L29.931 19.1569H48.1199L46.3289 0.542969H68.3909L66.5969 19.1569H84.7859L82.991 0.542969H107.685C107.498 2.44397 106.163 14.5079 101.96 23.0989C97.6229 31.9629 89.9879 39.0409 89.1989 39.7589H25.4299Z" fill="url(#paint0_linear_15_500)"/>
<path d="M107.426 0.777893C107.159 3.31689 105.777 14.7598 101.749 22.9958C97.533 31.6118 90.177 38.5419 89.107 39.5239H25.578C24.614 38.8289 17.751 33.6219 12.976 23.0099C8.44501 12.9469 7.45002 3.06589 7.27502 0.777893H31.464L29.719 18.8759L29.67 19.3919H30.188H47.859H48.377L48.328 18.8759L46.587 0.777893H68.13L66.385 18.8759L66.335 19.3919H66.854H84.525H85.044L84.995 18.8759L83.25 0.777893H107.426ZM107.944 0.307861H82.732L84.525 18.9209H66.854L68.649 0.307861H46.069L47.86 18.9209H30.189L31.984 0.307861H6.77197C6.77197 0.307861 7.304 11.5579 12.547 23.2029C17.791 34.8529 25.43 39.9949 25.43 39.9949H89.289C89.289 39.9949 97.544 32.6609 102.172 23.2029C106.795 13.7499 107.944 0.307861 107.944 0.307861Z" fill="#A6A8AB"/>
<path d="M20.4707 129.791L27.5647 55.5398H87.4467L94.5397 129.791H20.4707Z" fill="url(#paint1_linear_15_500)"/>
<path d="M87.2319 55.7739L94.2809 129.555H20.7299L27.7789 55.7739H87.2319V55.7739ZM87.6599 55.304H27.3499L20.2119 130.026H94.799L87.6599 55.304Z" fill="#A6A8AB"/>
<path d="M1.89697 212.574C2.10497 211.505 2.89001 207.62 3.67401 205.474C4.57701 203.023 7.72402 200.516 7.75702 200.491L107.268 200.542C107.204 200.576 110.584 204.028 111.355 206.323C112.023 208.323 112.734 211.598 112.94 212.574H1.89697Z" fill="url(#paint2_linear_15_500)"/>
<path d="M107.069 200.776C107.712 201.447 110.457 204.389 111.13 206.396C111.741 208.222 112.387 211.122 112.649 212.338H2.1828C2.4518 210.991 3.17384 207.528 3.89484 205.555C4.67184 203.443 7.18783 201.265 7.77783 200.776H107.069ZM107.268 200.306H7.6098C7.6098 200.306 4.38882 202.851 3.45282 205.393C2.52482 207.934 1.61182 212.809 1.61182 212.809H113.229C113.229 212.809 112.377 208.648 111.576 206.247C110.773 203.85 107.268 200.306 107.268 200.306Z" fill="#A6A8AB"/>
<path d="M8.3648 198.331C2.9568 190.194 0.478784 181.829 1.00078 173.467C1.43678 166.414 6.76682 158.739 11.4708 151.967C13.3678 149.234 15.1638 146.649 16.4358 144.372H100.684C101.635 146.003 102.689 147.701 103.774 149.452C108.376 156.874 113.59 165.287 114.03 173.466C114.477 181.785 111.949 190.151 106.516 198.332H8.3648V198.331Z" fill="url(#paint3_linear_15_500)"/>
<path d="M100.55 144.606C101.484 146.203 102.5 147.842 103.574 149.574C108.159 156.973 113.358 165.358 113.794 173.476C114.237 181.709 111.746 189.991 106.391 198.095H8.49213C3.16013 190.035 0.720116 181.755 1.23512 173.481C1.66712 166.494 6.97913 158.847 11.6641 152.1C13.5321 149.41 15.2991 146.864 16.5731 144.606H100.55ZM100.82 144.136H16.2971C11.9701 151.954 1.38815 163.374 0.765145 173.452C0.136145 183.532 3.84711 191.992 8.23811 198.566H106.642C111.029 191.992 114.798 183.378 114.264 173.452C113.715 163.236 105.817 152.734 100.82 144.136Z" fill="#A6A8AB"/>
<path d="M14.9427 142.16C14.4427 142.136 13.2137 141.453 12.3187 140.28C11.7417 139.525 11.1237 138.319 11.4497 136.862C12.2417 133.007 15.8157 132.173 16.6577 132.173H99.0317C99.9837 132.173 103.698 132.949 104.473 136.742C104.787 138.152 104.164 139.351 103.585 140.109C102.646 141.34 101.291 142.133 100.731 142.16C100.435 142.165 93.3317 142.167 84.6187 142.167C84.6207 142.167 15.2457 142.165 14.9427 142.16Z" fill="url(#paint4_linear_15_500)"/>
<path d="M99.033 132.409C99.945 132.409 103.501 133.152 104.245 136.798C104.539 138.116 103.947 139.249 103.4 139.967C102.462 141.196 101.138 141.906 100.737 141.925C100.476 141.929 94.904 141.931 84.621 141.931L56.1291 141.928L29.524 141.931C17.804 141.931 15.1281 141.928 14.9611 141.926C14.5541 141.907 13.386 141.293 12.506 140.138C11.961 139.423 11.3741 138.282 11.6821 136.906C12.4401 133.21 15.8551 132.409 16.6591 132.409H52.6141H59.6431H99.033ZM99.033 131.938C98.256 131.938 71.6321 131.938 59.6431 131.938C59.6431 131.938 56.8101 131.938 52.6141 131.938C40.6281 131.938 17.4281 131.938 16.6591 131.938C15.6071 131.938 12.0241 132.897 11.2211 136.811C10.5211 139.939 13.8391 142.344 14.9391 142.396C15.2421 142.4 21.605 142.402 29.524 142.402C38.602 142.402 49.7261 142.4 56.1291 142.399C62.5311 142.4 74.634 142.402 84.621 142.402C93.336 142.402 100.441 142.4 100.744 142.396C101.844 142.344 105.403 139.827 104.704 136.696C103.904 132.782 100.077 131.938 99.033 131.938Z" fill="#A6A8AB"/>
<path d="M24.9631 53.7259C24.2791 53.6869 21.5991 52.3449 20.1401 50.4679C19.3321 49.4289 19.0201 48.3999 19.2131 47.4099C20.0071 43.0089 23.5801 42.0569 24.4221 42.0569H90.6681C91.6181 42.0569 95.3291 42.9419 96.1081 47.2729C96.2981 48.2499 96.0011 49.2539 95.2221 50.2599C93.7871 52.1129 91.0711 53.4459 90.3531 53.4879C90.1151 53.4909 56.7271 53.4879 56.7271 53.4879C48.0441 53.4899 35.7721 53.6189 29.1791 53.6869C26.9191 53.7099 25.3951 53.7269 25.0291 53.7269H24.9631V53.7259Z" fill="url(#paint5_linear_15_500)"/>
<path d="M90.6677 42.292C91.5777 42.292 95.1257 43.144 95.8787 47.321C96.0547 48.225 95.7717 49.164 95.0357 50.115C93.6277 51.934 90.9507 53.216 90.3607 53.251C90.1107 53.255 86.8297 53.256 82.2017 53.256L61.3756 53.252L56.7267 53.251C48.0417 53.253 35.7687 53.381 29.1747 53.45C26.9157 53.474 25.3947 53.489 24.9857 53.49C24.3947 53.456 21.7587 52.167 20.3257 50.323C19.5607 49.339 19.2637 48.374 19.4447 47.448C20.2097 43.209 23.6187 42.292 24.4217 42.292H53.2116H60.2367H90.6677V42.292ZM90.6677 41.822C89.8927 41.822 72.2287 41.822 60.2367 41.822C60.2367 41.822 57.4086 41.822 53.2116 41.822C41.2246 41.822 25.1937 41.822 24.4217 41.822C23.3747 41.822 19.7846 42.915 18.9826 47.365C18.2876 50.926 23.8587 53.898 24.9597 53.961H25.0287C26.4427 53.961 44.9977 53.726 56.7277 53.723C64.0867 53.725 74.8437 53.728 82.2027 53.728C86.8347 53.728 90.1177 53.727 90.3687 53.723C91.4687 53.658 97.0387 50.794 96.3407 47.231C95.5397 42.784 91.7167 41.822 90.6677 41.822Z" fill="#A6A8AB"/>
<path d="M20.4707 129.791L27.5647 55.5398H87.4467L94.5397 129.791H20.4707Z" fill="url(#paint6_linear_15_500)"/>
<path d="M87.2319 55.7739L94.2809 129.555H20.7299L27.7789 55.7739H87.2319V55.7739ZM87.6599 55.304H27.3499L20.2119 130.026H94.799L87.6599 55.304Z" fill="#A6A8AB"/>
<path d="M1.89697 212.574C2.10497 211.505 2.89001 207.62 3.67401 205.474C4.57701 203.023 7.72402 200.516 7.75702 200.491L107.268 200.542C107.204 200.576 110.584 204.028 111.355 206.323C112.023 208.323 112.734 211.598 112.94 212.574H1.89697Z" fill="url(#paint7_linear_15_500)"/>
<path d="M107.069 200.776C107.712 201.447 110.457 204.389 111.13 206.396C111.741 208.222 112.387 211.122 112.649 212.338H2.1828C2.4518 210.991 3.17384 207.528 3.89484 205.555C4.67184 203.443 7.18783 201.265 7.77783 200.776H107.069ZM107.268 200.306H7.6098C7.6098 200.306 4.38882 202.851 3.45282 205.393C2.52482 207.934 1.61182 212.809 1.61182 212.809H113.229C113.229 212.809 112.377 208.648 111.576 206.247C110.773 203.85 107.268 200.306 107.268 200.306Z" fill="#A6A8AB"/>
<path d="M8.3648 198.331C2.9568 190.194 0.478784 181.829 1.00078 173.467C1.43678 166.414 6.76682 158.739 11.4708 151.967C13.3678 149.234 15.1638 146.649 16.4358 144.372H100.684C101.635 146.003 102.689 147.701 103.774 149.452C108.376 156.874 113.59 165.287 114.03 173.466C114.477 181.785 111.949 190.151 106.516 198.332H8.3648V198.331Z" fill="url(#paint8_linear_15_500)"/>
<path d="M100.55 144.606C101.484 146.203 102.5 147.842 103.574 149.574C108.159 156.973 113.358 165.358 113.794 173.476C114.237 181.709 111.746 189.991 106.391 198.095H8.49213C3.16013 190.035 0.720116 181.755 1.23512 173.481C1.66712 166.494 6.97913 158.847 11.6641 152.1C13.5321 149.41 15.2991 146.864 16.5731 144.606H100.55ZM100.82 144.136H16.2971C11.9701 151.954 1.38815 163.374 0.765145 173.452C0.136145 183.532 3.84711 191.992 8.23811 198.566H106.642C111.029 191.992 114.798 183.378 114.264 173.452C113.715 163.236 105.817 152.734 100.82 144.136Z" fill="#A6A8AB"/>
<path d="M14.9427 142.16C14.4427 142.136 13.2137 141.453 12.3187 140.28C11.7417 139.525 11.1237 138.319 11.4497 136.862C12.2417 133.007 15.8157 132.173 16.6577 132.173H99.0317C99.9837 132.173 103.698 132.949 104.473 136.742C104.787 138.152 104.164 139.351 103.585 140.109C102.646 141.34 101.291 142.133 100.731 142.16C100.435 142.165 93.3317 142.167 84.6187 142.167C84.6207 142.167 15.2457 142.165 14.9427 142.16Z" fill="url(#paint9_linear_15_500)"/>
<path d="M99.033 132.409C99.945 132.409 103.501 133.152 104.245 136.798C104.539 138.116 103.947 139.249 103.4 139.967C102.462 141.196 101.138 141.906 100.737 141.925C100.476 141.929 94.904 141.931 84.621 141.931L56.1291 141.928L29.524 141.931C17.804 141.931 15.1281 141.928 14.9611 141.926C14.5541 141.907 13.386 141.293 12.506 140.138C11.961 139.423 11.3741 138.282 11.6821 136.906C12.4401 133.21 15.8551 132.409 16.6591 132.409H52.6141H59.6431H99.033ZM99.033 131.938C98.256 131.938 71.6321 131.938 59.6431 131.938C59.6431 131.938 56.8101 131.938 52.6141 131.938C40.6281 131.938 17.4281 131.938 16.6591 131.938C15.6071 131.938 12.0241 132.897 11.2211 136.811C10.5211 139.939 13.8391 142.344 14.9391 142.396C15.2421 142.4 21.605 142.402 29.524 142.402C38.602 142.402 49.7261 142.4 56.1291 142.399C62.5311 142.4 74.634 142.402 84.621 142.402C93.336 142.402 100.441 142.4 100.744 142.396C101.844 142.344 105.403 139.827 104.704 136.696C103.904 132.782 100.077 131.938 99.033 131.938Z" fill="#A6A8AB"/>
<path d="M24.9631 53.7259C24.2791 53.6869 21.5991 52.3449 20.1401 50.4679C19.3321 49.4289 19.0201 48.3999 19.2131 47.4099C20.0071 43.0089 23.5801 42.0569 24.4221 42.0569H90.6681C91.6181 42.0569 95.3291 42.9419 96.1081 47.2729C96.2981 48.2499 96.0011 49.2539 95.2221 50.2599C93.7871 52.1129 91.0711 53.4459 90.3531 53.4879C90.1151 53.4909 56.7271 53.4879 56.7271 53.4879C48.0441 53.4899 35.7721 53.6189 29.1791 53.6869C26.9191 53.7099 25.3951 53.7269 25.0291 53.7269H24.9631V53.7259Z" fill="url(#paint10_linear_15_500)"/>
<path d="M90.6677 42.292C91.5777 42.292 95.1257 43.144 95.8787 47.321C96.0547 48.225 95.7717 49.164 95.0357 50.115C93.6277 51.934 90.9507 53.216 90.3607 53.251C90.1107 53.255 86.8297 53.256 82.2017 53.256L61.3756 53.252L56.7267 53.251C48.0417 53.253 35.7687 53.381 29.1747 53.45C26.9157 53.474 25.3947 53.489 24.9857 53.49C24.3947 53.456 21.7587 52.167 20.3257 50.323C19.5607 49.339 19.2637 48.374 19.4447 47.448C20.2097 43.209 23.6187 42.292 24.4217 42.292H53.2116H60.2367H90.6677V42.292ZM90.6677 41.822C89.8927 41.822 72.2287 41.822 60.2367 41.822C60.2367 41.822 57.4086 41.822 53.2116 41.822C41.2246 41.822 25.1937 41.822 24.4217 41.822C23.3747 41.822 19.7846 42.915 18.9826 47.365C18.2876 50.926 23.8587 53.898 24.9597 53.961H25.0287C26.4427 53.961 44.9977 53.726 56.7277 53.723C64.0867 53.725 74.8437 53.728 82.2027 53.728C86.8347 53.728 90.1177 53.727 90.3687 53.723C91.4687 53.658 97.0387 50.794 96.3407 47.231C95.5397 42.784 91.7167 41.822 90.6677 41.822Z" fill="#A6A8AB"/>
<defs>
<linearGradient id="paint0_linear_15_500" x1="7.1772" y1="20.2095" x2="107.826" y2="20.2095" gradientUnits="userSpaceOnUse">
<stop stop-color="#CBCCCD"/>
<stop offset="0.6606" stop-color="#EBEBEB"/>
<stop offset="1" stop-color="white"/>
</linearGradient>
<linearGradient id="paint1_linear_15_500" x1="19.8271" y1="92.6501" x2="93.8886" y2="92.6501" gradientUnits="userSpaceOnUse">
<stop stop-color="#CBCCCD"/>
<stop offset="0.6606" stop-color="#EBEBEB"/>
<stop offset="1" stop-color="white"/>
</linearGradient>
<linearGradient id="paint2_linear_15_500" x1="2.15506" y1="206.574" x2="113.181" y2="206.574" gradientUnits="userSpaceOnUse">
<stop stop-color="#CBCCCD"/>
<stop offset="0.6606" stop-color="#EBEBEB"/>
<stop offset="1" stop-color="white"/>
</linearGradient>
<linearGradient id="paint3_linear_15_500" x1="1.64621" y1="171.359" x2="114.776" y2="171.359" gradientUnits="userSpaceOnUse">
<stop stop-color="#CBCCCD"/>
<stop offset="0.6606" stop-color="#EBEBEB"/>
<stop offset="1" stop-color="white"/>
</linearGradient>
<linearGradient id="paint4_linear_15_500" x1="10.6268" y1="137.22" x2="103.837" y2="137.22" gradientUnits="userSpaceOnUse">
<stop stop-color="#CBCCCD"/>
<stop offset="0.6606" stop-color="#EBEBEB"/>
<stop offset="1" stop-color="white"/>
</linearGradient>
<linearGradient id="paint5_linear_15_500" x1="19.4674" y1="47.8751" x2="96.4839" y2="47.8751" gradientUnits="userSpaceOnUse">
<stop stop-color="#CBCCCD"/>
<stop offset="0.6606" stop-color="#EBEBEB"/>
<stop offset="1" stop-color="white"/>
</linearGradient>
<linearGradient id="paint6_linear_15_500" x1="19.8271" y1="92.6501" x2="93.8886" y2="92.6501" gradientUnits="userSpaceOnUse">
<stop stop-color="#CBCCCD"/>
<stop offset="0.6606" stop-color="#EBEBEB"/>
<stop offset="1" stop-color="white"/>
</linearGradient>
<linearGradient id="paint7_linear_15_500" x1="2.15506" y1="206.574" x2="113.181" y2="206.574" gradientUnits="userSpaceOnUse">
<stop stop-color="#CBCCCD"/>
<stop offset="0.6606" stop-color="#EBEBEB"/>
<stop offset="1" stop-color="white"/>
</linearGradient>
<linearGradient id="paint8_linear_15_500" x1="1.64621" y1="171.359" x2="114.776" y2="171.359" gradientUnits="userSpaceOnUse">
<stop stop-color="#CBCCCD"/>
<stop offset="0.6606" stop-color="#EBEBEB"/>
<stop offset="1" stop-color="white"/>
</linearGradient>
<linearGradient id="paint9_linear_15_500" x1="10.6268" y1="137.22" x2="103.837" y2="137.22" gradientUnits="userSpaceOnUse">
<stop stop-color="#CBCCCD"/>
<stop offset="0.6606" stop-color="#EBEBEB"/>
<stop offset="1" stop-color="white"/>
</linearGradient>
<linearGradient id="paint10_linear_15_500" x1="19.4674" y1="47.8751" x2="96.4839" y2="47.8751" gradientUnits="userSpaceOnUse">
<stop stop-color="#CBCCCD"/>
<stop offset="0.6606" stop-color="#EBEBEB"/>
<stop offset="1" stop-color="white"/>
</linearGradient>
</defs>
</svg>
