<svg width="104" height="295" viewBox="0 0 104 295" fill="none" xmlns="http://www.w3.org/2000/svg">
<path d="M1.88379 294.534C1.90179 293.618 2.02183 290.27 2.76483 288.491C3.62183 286.445 6.20184 284.504 6.22784 284.485L98.2168 284.532C98.1718 284.564 100.704 286.732 101.432 288.628C102.072 290.304 102.347 293.605 102.413 294.535H1.88379V294.534Z" fill="url(#paint0_linear_15_497)"/>
<path d="M98.0441 284.767C98.5721 285.233 100.588 287.085 101.212 288.711C101.793 290.231 102.068 293.137 102.159 294.299H2.12506C2.15806 293.152 2.30903 290.195 2.98303 288.582C3.71103 286.846 5.73308 285.173 6.24908 284.767H98.0441V284.767ZM98.22 284.296H6.08704C6.08704 284.296 3.44103 286.268 2.54803 288.4C1.65703 290.532 1.64404 294.771 1.64404 294.771H102.664C102.664 294.771 102.42 290.555 101.651 288.543C100.881 286.537 98.22 284.296 98.22 284.296Z" fill="#A6A8AB"/>
<path d="M6.80706 282.603C2.47006 276.871 0.220053 268.71 0.789053 260.744C1.31305 253.362 6.19002 245.83 10.108 239.779C10.62 238.988 11.1191 238.22 11.5901 237.476H93.68C97.133 242.685 102.925 252.748 103.518 262.38C103.99 270.029 102.021 276.645 97.501 282.603H6.80706V282.603Z" fill="url(#paint1_linear_15_497)"/>
<path d="M93.5527 237.712C96.9997 242.93 102.697 252.882 103.283 262.395C103.749 269.945 101.819 276.481 97.3848 282.368H6.92474C2.66574 276.685 0.46174 268.628 1.02374 260.76C1.54474 253.439 6.40178 245.936 10.3058 239.908C10.7928 239.155 11.2667 238.422 11.7197 237.712H93.5527ZM93.8058 237.241H11.4608C7.30975 243.788 1.15477 252.282 0.553769 260.727C-0.0492305 269.168 2.47876 277.328 6.68976 282.838H97.6177C101.828 277.328 104.265 270.678 103.753 262.364C103.226 253.806 98.5958 244.443 93.8058 237.241Z" fill="#A6A8AB"/>
<path d="M11.8677 235.546C11.3457 235.525 10.3476 234.925 9.65964 233.991C9.18364 233.345 8.68365 232.315 9.01365 231.071C9.78265 227.939 12.5687 227.255 13.5767 227.255H92.4217C93.4317 227.255 96.2176 227.94 96.9826 231.067C97.3146 232.315 96.8167 233.344 96.3407 233.989C95.6517 234.924 94.6537 235.525 94.1247 235.546C93.8527 235.55 88.4647 235.551 81.4547 235.551C81.4547 235.551 12.1467 235.55 11.8677 235.546Z" fill="url(#paint2_linear_15_497)"/>
<path d="M92.4218 227.491C93.3798 227.491 96.0258 228.144 96.7558 231.132C97.0628 232.285 96.5958 233.246 96.1508 233.85C95.4668 234.777 94.5288 235.295 94.1268 235.311C93.8878 235.313 89.7328 235.315 81.4258 235.315L65.0818 235.314L53.0008 235.313L40.9158 235.314L24.5718 235.315C16.2638 235.315 12.1108 235.313 11.8838 235.311C11.4708 235.295 10.5328 234.778 9.84978 233.851C9.40478 233.247 8.93682 232.286 9.24382 231.123C9.97482 228.143 12.6198 227.49 13.5768 227.49H49.4888H56.5108H92.4218V227.491ZM92.4218 227.02C91.6498 227.02 68.4808 227.02 56.5108 227.02C56.5108 227.02 53.6798 227.02 49.4888 227.02C37.5158 227.02 14.3488 227.02 13.5768 227.02C12.5278 227.02 9.59079 227.735 8.78679 231.011C8.09279 233.633 10.7648 235.738 11.8658 235.782C12.1438 235.785 17.5468 235.786 24.5728 235.786C33.9288 235.786 46.1628 235.784 53.0028 235.784C59.8388 235.784 72.0728 235.786 81.4278 235.786C88.4548 235.786 93.8558 235.785 94.1358 235.782C95.2358 235.738 97.9098 233.633 97.2138 231.011C96.4108 227.735 93.4698 227.02 92.4218 227.02Z" fill="#A6A8AB"/>
<path d="M14.6001 225.483C15.8251 222.69 17.0231 220.045 18.1861 217.476C26.6641 198.747 33.3651 183.946 35.8091 145.272H68.4971C70.8181 181.896 77.9311 197.016 86.1641 214.518C87.8041 218.005 89.4991 221.607 91.2031 225.483H14.6001V225.483Z" fill="url(#paint3_linear_15_497)"/>
<path d="M68.2748 145.508C70.6138 182.015 77.7237 197.131 85.9507 214.617C87.5437 218.004 89.1888 221.499 90.8428 225.247H14.9608C16.1348 222.576 17.2838 220.039 18.3998 217.572C26.8728 198.858 33.5707 184.061 36.0287 145.508H68.2748V145.508ZM68.7178 145.038H35.5878C32.8128 189.338 24.5137 202.254 14.2397 225.719H91.5638C81.2888 202.253 71.4958 189.337 68.7178 145.038Z" fill="#A6A8AB"/>
<path fill-rule="evenodd" clip-rule="evenodd" d="M52.9367 36.8259C49.8117 36.8259 46.7617 35.9859 44.0917 34.3919C44.6647 33.9159 45.2027 33.4189 45.6957 32.9159C49.7317 28.7979 51.4037 24.0369 49.5017 22.0779C48.9787 21.5459 48.2477 21.2779 47.3297 21.2779C44.9767 21.2779 41.6627 23.1119 38.8807 25.9529C38.3737 26.4639 37.9147 26.9919 37.4817 27.5159C36.0437 24.8729 35.2847 21.8619 35.2847 18.7859C35.2847 15.5859 36.1077 12.4529 37.6667 9.70291C38.1047 10.2609 38.6057 10.8309 39.1937 11.4369C41.9837 14.2739 45.3037 16.1069 47.6537 16.1069C48.5667 16.1069 49.2917 15.8389 49.8087 15.3139C51.7157 13.3699 50.0487 8.60792 46.0137 4.47092C45.4677 3.91092 44.9277 3.41189 44.4047 2.98489C47.0097 1.51089 49.9527 0.73291 52.9367 0.73291C55.9317 0.73291 58.8787 1.51192 61.4807 2.98892C60.9517 3.43792 60.5027 3.8579 60.0857 4.2919C56.0567 8.4089 54.3907 13.1649 56.2957 15.1169C56.8127 15.6499 57.5427 15.9199 58.4627 15.9199C60.8167 15.9199 64.1357 14.0809 66.9187 11.2339C67.3647 10.7859 67.8167 10.2799 68.2377 9.75992C69.7877 12.4929 70.6057 15.6039 70.6057 18.7739C70.6057 21.8989 69.8127 24.9729 68.3097 27.6909C67.8487 27.0969 67.3327 26.5129 66.7767 25.9529C63.9917 23.1119 60.6747 21.2749 58.3277 21.2749C57.4097 21.2749 56.6797 21.5449 56.1607 22.0779C54.2537 24.0259 55.9227 28.7819 59.9577 32.9039C60.4937 33.4569 61.0577 33.9729 61.6717 34.4749C59.0257 36.0089 56.0137 36.8209 52.9367 36.8259Z" fill="url(#paint4_linear_15_497)"/>
<path d="M52.9368 0.967804C55.7788 0.967804 58.5778 1.67882 61.0718 3.02982C60.6438 3.40282 60.2698 3.75781 59.9188 4.12381C55.7978 8.33481 54.1318 13.2358 56.1268 15.2798C56.6828 15.8508 57.4908 16.1538 58.4618 16.1538C60.9128 16.1538 64.2168 14.3318 67.0828 11.4008C67.4588 11.0228 67.8378 10.6068 68.1988 10.1758C69.6208 12.8008 70.3688 15.7588 70.3688 18.7728C70.3688 21.7388 69.6458 24.6588 68.2718 27.2638C67.8628 26.7588 67.4178 26.2648 66.9448 25.7868C64.0728 22.8568 60.7698 21.0368 58.3258 21.0368C57.3548 21.0368 56.5478 21.3388 55.9908 21.9098C53.9938 23.9508 55.6618 28.8508 59.7858 33.0638C60.2518 33.5438 60.7368 33.9968 61.2578 34.4348C58.7208 35.8428 55.8578 36.5848 52.9358 36.5888C49.9648 36.5888 47.0618 35.8188 44.4978 34.3548C44.9818 33.9398 45.4398 33.5118 45.8638 33.0788C49.9888 28.8698 51.6608 23.9638 49.6678 21.9088C49.1078 21.3408 48.2988 21.0398 47.3288 21.0398C44.8798 21.0398 41.5788 22.8578 38.7148 25.7828C38.2698 26.2318 37.8668 26.6868 37.5238 27.0928C36.2108 24.5598 35.5188 21.7008 35.5188 18.7828C35.5188 15.7408 36.2718 12.7618 37.7028 10.1208C38.0918 10.5978 38.5288 11.0848 39.0278 11.5998C41.9018 14.5228 45.2068 16.3398 47.6538 16.3398C48.6188 16.3398 49.4218 16.0408 49.9758 15.4768C51.9748 13.4408 50.3068 8.53382 46.1818 4.30582C45.7218 3.83382 45.2648 3.40383 44.8188 3.02283C47.3128 1.67683 50.1048 0.967804 52.9368 0.967804ZM52.9368 0.497803C49.6798 0.497803 46.6208 1.39483 43.9878 2.95383C44.6238 3.44983 45.2438 4.0188 45.8448 4.6358C49.7288 8.6178 51.4338 13.3218 49.6398 15.1488C49.1588 15.6388 48.4728 15.8718 47.6538 15.8718C45.4268 15.8718 42.2028 14.1608 39.3628 11.2728C38.7258 10.6158 38.1498 9.96082 37.6388 9.28082C36.0018 12.0418 35.0488 15.3078 35.0488 18.7858C35.0488 22.1048 35.9188 25.2558 37.4448 27.9328C37.9368 27.3258 38.4598 26.7118 39.0488 26.1178C41.8838 23.2218 45.0988 21.5138 47.3288 21.5138C48.1538 21.5138 48.8448 21.7478 49.3318 22.2418C51.1148 24.0798 49.4168 28.7828 45.5268 32.7528C44.9338 33.3588 44.2988 33.9268 43.6858 34.4218C46.3828 36.1018 49.5568 37.0628 52.9358 37.0628C56.2758 37.0588 59.4028 36.1308 62.0818 34.5038C61.4138 33.9758 60.7588 33.3948 60.1238 32.7398C56.2378 28.7708 54.5378 24.0708 56.3268 22.2418C56.8108 21.7458 57.5008 21.5108 58.3258 21.5108C60.5528 21.5108 63.7688 23.2228 66.6078 26.1188C67.2478 26.7648 67.8268 27.4318 68.3368 28.1188C69.9218 25.3808 70.8388 22.1908 70.8388 18.7758C70.8388 15.3298 69.8998 12.1028 68.2658 9.34482C67.8198 9.91882 67.3028 10.5148 66.7478 11.0728C63.9068 13.9778 60.6868 15.6868 58.4598 15.6868C57.6348 15.6868 56.9438 15.4518 56.4618 14.9558C54.6758 13.1248 56.3708 8.42482 60.2538 4.45682C60.7888 3.89982 61.3338 3.41482 61.8878 2.95682C59.2498 1.38782 56.1968 0.497803 52.9368 0.497803Z" fill="#A6A8AB"/>
<path d="M24.7491 143.272C24.1351 143.201 19.2831 140.382 19.7131 135.914C20.2221 130.191 25.3951 128.248 25.8351 128.248H30.6191L32.1221 101.685C31.9201 101.297 15.7931 77.217 13.3051 73.189C11.7391 70.66 9.87207 66.814 9.87207 62.849C9.87207 54.463 16.5491 47.639 24.7571 47.639L33.5731 47.641V43.615C33.5731 41.306 35.4091 39.428 37.6661 39.428H66.6511C68.9071 39.428 70.7441 41.306 70.7441 43.615V47.641L79.558 47.639C87.766 47.639 94.444 54.463 94.444 62.849C94.444 66.806 92.5781 70.657 91.0131 73.189C88.5231 77.216 72.599 100.649 72.438 100.885L73.6951 128.248H78.5891C79.2071 128.248 83.9251 130.726 84.4221 136.311C84.8701 140.958 80.074 143.225 79.657 143.273C79.493 143.276 75.433 143.277 70.287 143.277C70.288 143.278 24.9321 143.277 24.7491 143.272Z" fill="url(#paint5_linear_15_497)"/>
<path d="M66.6498 39.6629C68.7768 39.6629 70.5078 41.4359 70.5078 43.6149V47.4059V47.8769H70.9788L75.2748 47.8759L79.5577 47.8749C87.6357 47.8749 94.2078 54.5929 94.2078 62.8489C94.2078 66.7509 92.3607 70.5579 90.8127 73.0659C88.3257 77.0879 72.4038 100.517 72.2438 100.753L72.1548 100.884L72.1638 101.04L73.4498 128.036L73.4708 128.485H73.9197H78.5778C78.9968 128.527 83.6907 130.748 84.1877 136.337C84.6077 140.707 80.0268 142.984 79.6718 143.039C79.4418 143.044 72.5507 143.044 70.2867 143.044L58.7798 143.043L51.1118 143.042L43.5627 143.043L33.2347 143.044C31.1927 143.044 24.9817 143.044 24.7997 143.042C24.1427 142.928 19.5357 140.207 19.9457 135.934C20.4347 130.436 25.3257 128.515 25.8337 128.485H30.3948H30.8398L30.8647 128.041L32.3547 101.699L32.3638 101.542L32.2758 101.41C32.1138 101.168 15.9888 77.0899 13.5038 73.0649C11.9538 70.5629 10.1068 66.7589 10.1068 62.8489C10.1068 54.5929 16.6788 47.8749 24.7568 47.8749L29.0388 47.8759L33.3378 47.8769H33.8088V47.4059V43.6149C33.8088 41.4359 35.5378 39.6629 37.6658 39.6629H66.6498ZM66.6498 39.1919C62.7718 39.1919 42.3597 39.1919 37.6647 39.1919C35.2747 39.1919 33.3367 41.1739 33.3367 43.6149C33.3367 44.6569 33.3367 47.4059 33.3367 47.4059C30.9147 47.4059 27.1667 47.4039 24.7557 47.4039C16.4057 47.4039 9.63477 54.3179 9.63477 62.8489C9.63477 66.5849 11.2878 70.3819 13.1028 73.3129C15.6218 77.3909 31.8848 101.672 31.8848 101.672L30.3948 128.013C27.8078 128.013 25.9987 128.013 25.8337 128.013C25.1667 128.013 19.9938 130.096 19.4778 135.89C19.0318 140.526 24.0358 143.426 24.7418 143.507C24.9248 143.511 28.5627 143.512 33.2347 143.512C39.1847 143.512 46.8118 143.51 51.1118 143.51C55.4128 143.51 63.7297 143.512 70.2867 143.512C75.4347 143.512 79.4977 143.511 79.6827 143.507C80.3887 143.425 85.1027 140.926 84.6567 136.29C84.1407 130.498 79.2567 128.013 78.5887 128.013C78.4277 128.013 76.5897 128.013 73.9197 128.013L72.6328 101.017C72.6328 101.017 88.6917 77.3899 91.2137 73.3119C93.0247 70.3799 94.6788 66.5839 94.6788 62.8479C94.6788 54.3169 87.9077 47.4029 79.5577 47.4029C77.1477 47.4029 73.3968 47.4049 70.9788 47.4049C70.9788 47.4049 70.9788 44.6559 70.9788 43.6139C70.9788 41.1739 69.0408 39.1919 66.6498 39.1919Z" fill="#A6A8AB"/>
<path d="M1.88379 294.534C1.90179 293.618 2.02183 290.27 2.76483 288.491C3.62183 286.445 6.20184 284.504 6.22784 284.485L98.2168 284.532C98.1718 284.564 100.704 286.732 101.432 288.628C102.072 290.304 102.347 293.605 102.413 294.535H1.88379V294.534Z" fill="url(#paint6_linear_15_497)"/>
<path d="M98.0441 284.767C98.5721 285.233 100.588 287.085 101.212 288.711C101.793 290.231 102.068 293.137 102.159 294.299H2.12506C2.15806 293.152 2.30903 290.195 2.98303 288.582C3.71103 286.846 5.73308 285.173 6.24908 284.767H98.0441V284.767ZM98.22 284.296H6.08704C6.08704 284.296 3.44103 286.268 2.54803 288.4C1.65703 290.532 1.64404 294.771 1.64404 294.771H102.664C102.664 294.771 102.42 290.555 101.651 288.543C100.881 286.537 98.22 284.296 98.22 284.296Z" fill="#A6A8AB"/>
<path d="M6.80706 282.603C2.47006 276.871 0.220053 268.71 0.789053 260.744C1.31305 253.362 6.19002 245.83 10.108 239.779C10.62 238.988 11.1191 238.22 11.5901 237.476H93.68C97.133 242.685 102.925 252.748 103.518 262.38C103.99 270.029 102.021 276.645 97.501 282.603H6.80706V282.603Z" fill="url(#paint7_linear_15_497)"/>
<path d="M93.5527 237.712C96.9997 242.93 102.697 252.882 103.283 262.395C103.749 269.945 101.819 276.481 97.3848 282.368H6.92474C2.66574 276.685 0.46174 268.628 1.02374 260.76C1.54474 253.439 6.40178 245.936 10.3058 239.908C10.7928 239.155 11.2667 238.422 11.7197 237.712H93.5527ZM93.8058 237.241H11.4608C7.30975 243.788 1.15477 252.282 0.553769 260.727C-0.0492305 269.168 2.47876 277.328 6.68976 282.838H97.6177C101.828 277.328 104.265 270.678 103.753 262.364C103.226 253.806 98.5958 244.443 93.8058 237.241Z" fill="#A6A8AB"/>
<path d="M11.8677 235.546C11.3457 235.525 10.3476 234.925 9.65964 233.991C9.18364 233.345 8.68365 232.315 9.01365 231.071C9.78265 227.939 12.5687 227.255 13.5767 227.255H92.4217C93.4317 227.255 96.2176 227.94 96.9826 231.067C97.3146 232.315 96.8167 233.344 96.3407 233.989C95.6517 234.924 94.6537 235.525 94.1247 235.546C93.8527 235.55 88.4647 235.551 81.4547 235.551C81.4547 235.551 12.1467 235.55 11.8677 235.546Z" fill="url(#paint8_linear_15_497)"/>
<path d="M92.4218 227.491C93.3798 227.491 96.0258 228.144 96.7558 231.132C97.0628 232.285 96.5958 233.246 96.1508 233.85C95.4668 234.777 94.5288 235.295 94.1268 235.311C93.8878 235.313 89.7328 235.315 81.4258 235.315L65.0818 235.314L53.0008 235.313L40.9158 235.314L24.5718 235.315C16.2638 235.315 12.1108 235.313 11.8838 235.311C11.4708 235.295 10.5328 234.778 9.84978 233.851C9.40478 233.247 8.93682 232.286 9.24382 231.123C9.97482 228.143 12.6198 227.49 13.5768 227.49H49.4888H56.5108H92.4218V227.491ZM92.4218 227.02C91.6498 227.02 68.4808 227.02 56.5108 227.02C56.5108 227.02 53.6798 227.02 49.4888 227.02C37.5158 227.02 14.3488 227.02 13.5768 227.02C12.5278 227.02 9.59079 227.735 8.78679 231.011C8.09279 233.633 10.7648 235.738 11.8658 235.782C12.1438 235.785 17.5468 235.786 24.5728 235.786C33.9288 235.786 46.1628 235.784 53.0028 235.784C59.8388 235.784 72.0728 235.786 81.4278 235.786C88.4548 235.786 93.8558 235.785 94.1358 235.782C95.2358 235.738 97.9098 233.633 97.2138 231.011C96.4108 227.735 93.4698 227.02 92.4218 227.02Z" fill="#A6A8AB"/>
<path d="M14.6001 225.483C15.8251 222.69 17.0231 220.045 18.1861 217.476C26.6641 198.747 33.3651 183.946 35.8091 145.272H68.4971C70.8181 181.896 77.9311 197.016 86.1641 214.518C87.8041 218.005 89.4991 221.607 91.2031 225.483H14.6001V225.483Z" fill="url(#paint9_linear_15_497)"/>
<path d="M68.2748 145.508C70.6138 182.015 77.7237 197.131 85.9507 214.617C87.5437 218.004 89.1888 221.499 90.8428 225.247H14.9608C16.1348 222.576 17.2838 220.039 18.3998 217.572C26.8728 198.858 33.5707 184.061 36.0287 145.508H68.2748V145.508ZM68.7178 145.038H35.5878C32.8128 189.338 24.5137 202.254 14.2397 225.719H91.5638C81.2888 202.253 71.4958 189.337 68.7178 145.038Z" fill="#A6A8AB"/>
<path d="M24.7491 143.272C24.1351 143.201 19.2831 140.382 19.7131 135.914C20.2221 130.191 25.3951 128.248 25.8351 128.248H30.6191L32.1221 101.685C31.9201 101.297 15.7931 77.217 13.3051 73.189C11.7391 70.66 9.87207 66.814 9.87207 62.849C9.87207 54.463 16.5491 47.639 24.7571 47.639L33.5731 47.641V43.615C33.5731 41.306 35.4091 39.428 37.6661 39.428H66.6511C68.9071 39.428 70.7441 41.306 70.7441 43.615V47.641L79.558 47.639C87.766 47.639 94.444 54.463 94.444 62.849C94.444 66.806 92.5781 70.657 91.0131 73.189C88.5231 77.216 72.599 100.649 72.438 100.885L73.6951 128.248H78.5891C79.2071 128.248 83.9251 130.726 84.4221 136.311C84.8701 140.958 80.074 143.225 79.657 143.273C79.493 143.276 75.433 143.277 70.287 143.277C70.288 143.278 24.9321 143.277 24.7491 143.272Z" fill="url(#paint10_linear_15_497)"/>
<path d="M66.6498 39.6629C68.7768 39.6629 70.5078 41.4359 70.5078 43.6149V47.4059V47.8769H70.9788L75.2748 47.8759L79.5577 47.8749C87.6357 47.8749 94.2078 54.5929 94.2078 62.8489C94.2078 66.7509 92.3607 70.5579 90.8127 73.0659C88.3257 77.0879 72.4038 100.517 72.2438 100.753L72.1548 100.884L72.1638 101.04L73.4498 128.036L73.4708 128.485H73.9197H78.5778C78.9968 128.527 83.6907 130.748 84.1877 136.337C84.6077 140.707 80.0268 142.984 79.6718 143.039C79.4418 143.044 72.5507 143.044 70.2867 143.044L58.7798 143.043L51.1118 143.042L43.5627 143.043L33.2347 143.044C31.1927 143.044 24.9817 143.044 24.7997 143.042C24.1427 142.928 19.5357 140.207 19.9457 135.934C20.4347 130.436 25.3257 128.515 25.8337 128.485H30.3948H30.8398L30.8647 128.041L32.3547 101.699L32.3638 101.542L32.2758 101.41C32.1138 101.168 15.9888 77.0899 13.5038 73.0649C11.9538 70.5629 10.1068 66.7589 10.1068 62.8489C10.1068 54.5929 16.6788 47.8749 24.7568 47.8749L29.0388 47.8759L33.3378 47.8769H33.8088V47.4059V43.6149C33.8088 41.4359 35.5378 39.6629 37.6658 39.6629H66.6498ZM66.6498 39.1919C62.7718 39.1919 42.3597 39.1919 37.6647 39.1919C35.2747 39.1919 33.3367 41.1739 33.3367 43.6149C33.3367 44.6569 33.3367 47.4059 33.3367 47.4059C30.9147 47.4059 27.1667 47.4039 24.7557 47.4039C16.4057 47.4039 9.63477 54.3179 9.63477 62.8489C9.63477 66.5849 11.2878 70.3819 13.1028 73.3129C15.6218 77.3909 31.8848 101.672 31.8848 101.672L30.3948 128.013C27.8078 128.013 25.9987 128.013 25.8337 128.013C25.1667 128.013 19.9938 130.096 19.4778 135.89C19.0318 140.526 24.0358 143.426 24.7418 143.507C24.9248 143.511 28.5627 143.512 33.2347 143.512C39.1847 143.512 46.8118 143.51 51.1118 143.51C55.4128 143.51 63.7297 143.512 70.2867 143.512C75.4347 143.512 79.4977 143.511 79.6827 143.507C80.3887 143.425 85.1027 140.926 84.6567 136.29C84.1407 130.498 79.2567 128.013 78.5887 128.013C78.4277 128.013 76.5897 128.013 73.9197 128.013L72.6328 101.017C72.6328 101.017 88.6917 77.3899 91.2137 73.3119C93.0247 70.3799 94.6788 66.5839 94.6788 62.8479C94.6788 54.3169 87.9077 47.4029 79.5577 47.4029C77.1477 47.4029 73.3968 47.4049 70.9788 47.4049C70.9788 47.4049 70.9788 44.6559 70.9788 43.6139C70.9788 41.1739 69.0408 39.1919 66.6498 39.1919Z" fill="#A6A8AB"/>
<defs>
<linearGradient id="paint0_linear_15_497" x1="1.90111" y1="289.503" x2="102.443" y2="289.503" gradientUnits="userSpaceOnUse">
<stop stop-color="#CBCCCD"/>
<stop offset="0.6606" stop-color="#EBEBEB"/>
<stop offset="1" stop-color="white"/>
</linearGradient>
<linearGradient id="paint1_linear_15_497" x1="1.20721" y1="260.056" x2="104.105" y2="260.056" gradientUnits="userSpaceOnUse">
<stop stop-color="#CBCCCD"/>
<stop offset="0.6606" stop-color="#EBEBEB"/>
<stop offset="1" stop-color="white"/>
</linearGradient>
<linearGradient id="paint2_linear_15_497" x1="8.74334" y1="231.385" x2="96.9361" y2="231.385" gradientUnits="userSpaceOnUse">
<stop stop-color="#CBCCCD"/>
<stop offset="0.6606" stop-color="#EBEBEB"/>
<stop offset="1" stop-color="white"/>
</linearGradient>
<linearGradient id="paint3_linear_15_497" x1="13.966" y1="185.387" x2="90.5779" y2="185.387" gradientUnits="userSpaceOnUse">
<stop stop-color="#CBCCCD"/>
<stop offset="0.6606" stop-color="#EBEBEB"/>
<stop offset="1" stop-color="white"/>
</linearGradient>
<linearGradient id="paint4_linear_15_497" x1="35.0201" y1="18.7755" x2="70.3353" y2="18.7755" gradientUnits="userSpaceOnUse">
<stop stop-color="#CBCCCD"/>
<stop offset="0.6606" stop-color="#EBEBEB"/>
<stop offset="1" stop-color="white"/>
</linearGradient>
<linearGradient id="paint5_linear_15_497" x1="9.39215" y1="91.3439" x2="93.9746" y2="91.3439" gradientUnits="userSpaceOnUse">
<stop stop-color="#CBCCCD"/>
<stop offset="0.6606" stop-color="#EBEBEB"/>
<stop offset="1" stop-color="white"/>
</linearGradient>
<linearGradient id="paint6_linear_15_497" x1="1.90111" y1="289.503" x2="102.443" y2="289.503" gradientUnits="userSpaceOnUse">
<stop stop-color="#CBCCCD"/>
<stop offset="0.6606" stop-color="#EBEBEB"/>
<stop offset="1" stop-color="white"/>
</linearGradient>
<linearGradient id="paint7_linear_15_497" x1="1.20721" y1="260.056" x2="104.105" y2="260.056" gradientUnits="userSpaceOnUse">
<stop stop-color="#CBCCCD"/>
<stop offset="0.6606" stop-color="#EBEBEB"/>
<stop offset="1" stop-color="white"/>
</linearGradient>
<linearGradient id="paint8_linear_15_497" x1="8.74334" y1="231.385" x2="96.9361" y2="231.385" gradientUnits="userSpaceOnUse">
<stop stop-color="#CBCCCD"/>
<stop offset="0.6606" stop-color="#EBEBEB"/>
<stop offset="1" stop-color="white"/>
</linearGradient>
<linearGradient id="paint9_linear_15_497" x1="13.966" y1="185.387" x2="90.5779" y2="185.387" gradientUnits="userSpaceOnUse">
<stop stop-color="#CBCCCD"/>
<stop offset="0.6606" stop-color="#EBEBEB"/>
<stop offset="1" stop-color="white"/>
</linearGradient>
<linearGradient id="paint10_linear_15_497" x1="9.39215" y1="91.3439" x2="93.9746" y2="91.3439" gradientUnits="userSpaceOnUse">
<stop stop-color="#CBCCCD"/>
<stop offset="0.6606" stop-color="#EBEBEB"/>
<stop offset="1" stop-color="white"/>
</linearGradient>
</defs>
</svg>
