<svg width="93" height="250" viewBox="0 0 93 250" fill="none" xmlns="http://www.w3.org/2000/svg">
<path d="M14.3179 173.053C21.5949 158.316 31.2258 136.929 32.0328 119.653H62.3428C63.1618 137.069 73.8699 159.472 80.3989 173.053H14.3179Z" fill="url(#paint0_linear_15_499)"/>
<path d="M62.1175 119.888C63.0115 137.175 73.5005 159.247 80.0235 172.818H14.6965C21.9305 158.138 31.3815 137.037 32.2565 119.888H62.1175ZM62.5665 119.417H31.8065C31.0745 136.719 21.3655 158.277 13.9385 173.288H80.7715C73.7605 158.705 63.2965 136.719 62.5665 119.417Z" fill="#A6A8AB"/>
<path d="M29.4938 87.4811C27.1128 87.4811 25.1758 85.4351 25.1758 82.9191C25.1758 80.3861 27.1088 78.3251 29.4848 78.3251H30.0809L29.6459 77.9181C21.8459 70.6131 19.1578 56.4881 22.1308 49.6641C24.0108 45.3561 26.5568 41.6251 29.0198 38.0181C30.0468 36.5141 31.0698 35.0161 32.0398 33.4851L37.7178 46.0501C37.7118 46.0501 38.2389 48.5051 40.4639 48.5041C41.2789 48.4811 41.7759 48.2461 42.0289 47.8071C42.5309 46.9331 41.8188 45.6031 41.7888 45.5471L34.4639 29.4581C35.5939 27.7641 37.3498 25.2001 39.1748 22.5341C40.8298 20.1171 42.5428 17.6161 43.8988 15.6031L44.0478 15.3821L43.8108 15.2621C41.3938 14.0331 40.1678 11.5321 40.1678 7.82709C40.1678 3.14509 42.8178 0.235107 47.0838 0.235107C51.6408 0.235107 54.8228 3.35709 54.8228 7.82709C54.8228 11.2111 53.3088 13.9201 50.6698 15.2621L50.4328 15.3821L50.5818 15.6031C53.2618 19.5871 55.6238 22.9841 57.7398 26.0291C63.9508 34.9621 68.0539 40.8641 71.8959 49.6651C74.9939 56.7681 72.5819 70.6571 64.8309 77.9191L64.3959 78.3261H64.9918C67.3668 78.3261 69.3008 80.3871 69.3008 82.9201C69.3008 85.4361 67.3658 87.4821 64.9868 87.4821H29.4938V87.4811Z" fill="url(#paint1_linear_15_499)"/>
<path d="M47.0839 0.471008C51.5009 0.471008 54.5878 3.496 54.5878 7.827C54.5878 11.119 53.1199 13.752 50.5629 15.053L50.0889 15.293L50.3859 15.734C53.0669 19.72 55.4468 23.143 57.5468 26.163C63.7498 35.085 67.8479 40.979 71.6799 49.76C74.7469 56.791 72.3519 70.548 64.6699 77.746L63.8009 78.56H64.9909C67.2369 78.56 69.0639 80.516 69.0639 82.918C69.0639 85.303 67.2349 87.245 64.9849 87.245H29.4938C27.2428 87.245 25.4108 85.304 25.4108 82.918C25.4108 80.515 27.2388 78.56 29.4838 78.56H30.6749L29.8049 77.746C22.0729 70.504 19.4009 56.514 22.3449 49.76C24.2169 45.47 26.7579 41.75 29.2139 38.151C30.1409 36.793 31.0969 35.394 32.0039 33.98L37.4829 46.102C37.6909 47.046 38.5599 48.74 40.4639 48.74L40.5549 48.739H40.5618C41.3738 48.714 41.9359 48.44 42.2329 47.925C42.7899 46.956 42.0789 45.59 42.0109 45.466L34.7329 29.482C35.8639 27.789 37.5839 25.278 39.3699 22.669C41.0259 20.252 42.7379 17.751 44.0949 15.736L44.3919 15.295L43.9179 15.055C41.5859 13.868 40.4039 11.439 40.4039 7.82901C40.4029 3.22201 42.9009 0.471008 47.0839 0.471008ZM47.0839 0C42.5769 0 39.9318 3.078 39.9318 7.827C39.9318 11.241 40.9719 14.082 43.7039 15.472C40.8189 19.754 36.3218 26.243 34.1948 29.438L41.5819 45.661C41.5819 45.661 42.9579 48.196 40.5479 48.268L40.4639 48.269C38.3949 48.269 37.9329 45.955 37.9329 45.955L32.0748 32.991C28.6998 38.38 24.6438 43.321 21.9158 49.572C18.7198 56.906 21.8759 70.963 29.4859 78.091C26.9759 78.091 24.9429 80.27 24.9429 82.92C24.9429 85.571 26.9819 87.717 29.4959 87.717C34.6079 87.717 59.8458 87.717 64.9868 87.717C67.4978 87.717 69.5358 85.571 69.5358 82.92C69.5358 80.271 67.5058 78.091 64.9918 78.091C72.5988 70.963 75.3108 56.906 72.1118 49.572C66.9518 37.75 61.3369 31.17 50.7769 15.472C53.5099 14.083 55.0588 11.241 55.0588 7.827C55.0578 3.078 51.5889 0 47.0839 0Z" fill="#A6A8AB"/>
<path d="M2.3208 249.445C2.3358 248.467 2.4348 244.704 3.0708 242.708C3.8028 240.44 5.97879 238.292 6.00079 238.27L86.4858 238.337C86.8638 238.769 88.6988 240.937 89.2638 242.863C89.8148 244.744 90.0448 248.456 90.0988 249.444H2.3208V249.445Z" fill="url(#paint2_linear_15_499)"/>
<path d="M86.379 238.573C86.864 239.138 88.516 241.147 89.039 242.93C89.543 244.656 89.777 247.963 89.85 249.209H2.56104C2.58704 247.973 2.71204 244.609 3.29504 242.78C3.90504 240.889 5.556 239.072 6.034 238.572H86.379V238.573ZM86.592 238.102H5.836C5.836 238.102 3.60605 240.283 2.84705 242.636C2.09605 244.992 2.08301 249.68 2.08301 249.68H90.346C90.346 249.68 90.1411 245.02 89.4901 242.798C88.8391 240.578 86.592 238.102 86.592 238.102Z" fill="#A6A8AB"/>
<path d="M6.48389 236.255C4.36289 232.599 -0.316122 223.168 0.288878 212.047C0.678878 204.847 4.52587 197.669 7.92187 191.336C8.86087 189.582 9.75993 187.906 10.5289 186.33H82.7179C83.1399 187.161 83.5769 188.007 84.0219 188.868C87.8119 196.21 92.1079 204.53 92.5009 212.902C92.8509 220.322 90.6449 228.177 85.9439 236.256H6.48389V236.255Z" fill="url(#paint3_linear_15_499)"/>
<path d="M82.5735 186.564C82.9765 187.355 83.3915 188.158 83.8125 188.975C87.5925 196.295 91.8755 204.592 92.2675 212.912C92.6115 220.249 90.4385 228.023 85.8095 236.019H6.61849C4.47849 232.301 -0.0725195 223 0.52248 212.06C0.91048 204.912 4.7455 197.758 8.1285 191.445C9.0475 189.731 9.9195 188.106 10.6755 186.564H82.5735ZM82.8615 186.094H10.3815C6.87149 193.33 0.55851 202.703 0.0525098 212.034C-0.45449 221.368 2.78949 230.404 6.34749 236.491H86.0795C89.6375 230.405 93.1685 222.081 92.7365 212.89C92.2925 203.431 86.9035 194.053 82.8615 186.094Z" fill="#A6A8AB"/>
<path d="M10.7257 184.249C10.3567 184.228 9.4397 183.69 8.7027 182.735C8.1327 181.998 7.51569 180.812 7.80969 179.355C8.47769 175.802 11.4647 175.034 12.1677 175.034H81.6927C82.4887 175.034 85.5937 175.749 86.2507 179.245C86.5357 180.66 85.9077 181.846 85.3317 182.592C84.5337 183.624 83.5207 184.228 83.1257 184.25C82.9147 184.253 78.4627 184.254 72.5517 184.254C72.5507 184.253 10.9437 184.252 10.7257 184.249Z" fill="url(#paint4_linear_15_499)"/>
<path d="M81.6927 175.269C82.4467 175.269 85.3927 175.951 86.0217 179.294C86.2877 180.618 85.6927 181.74 85.1457 182.448C84.3767 183.445 83.4137 183.996 83.1327 184.013C82.9987 184.015 81.0557 184.016 72.5657 184.016L45.4866 184.013L20.2756 184.016C12.6276 184.016 10.8627 184.015 10.7507 184.014C10.4647 183.997 9.5977 183.508 8.8907 182.591C8.3497 181.892 7.76567 180.771 8.04267 179.395C8.68067 176.003 11.5046 175.269 12.1686 175.269H42.5176H48.4507H81.6927V175.269ZM81.6927 174.798C81.0387 174.798 58.5687 174.798 48.4497 174.798C48.4497 174.798 46.0567 174.798 42.5167 174.798C32.4017 174.798 12.8217 174.798 12.1677 174.798C11.2847 174.798 8.25966 175.687 7.57966 179.308C6.99466 182.206 9.79264 184.432 10.7236 184.484C10.9416 184.486 14.9266 184.487 20.2756 184.487C28.3066 184.487 39.4126 184.485 45.4866 184.484C51.5556 184.485 63.7027 184.487 72.5657 184.487C78.4717 184.487 82.9187 184.486 83.1397 184.484C84.0687 184.431 87.0677 182.099 86.4837 179.201C85.8007 175.58 82.5747 174.798 81.6927 174.798Z" fill="#A6A8AB"/>
<path d="M24.6107 117.329C24.0947 117.271 19.9967 114.967 20.3607 111.32C20.7887 106.641 25.1628 105.052 25.5348 105.052H29.6637V89.384H64.7107V105.052H70.4467C70.9687 105.052 74.9587 107.08 75.3817 111.649C75.7547 115.44 71.7027 117.291 71.3507 117.331C71.2187 117.333 67.8757 117.333 63.6027 117.333L24.6107 117.329Z" fill="url(#paint5_linear_15_499)"/>
<path d="M64.4746 89.6199V104.817V105.288H64.9456L70.4306 105.287C70.8366 105.335 74.7276 107.138 75.1466 111.674C75.4966 115.22 71.6686 117.044 71.3656 117.095C71.2336 117.097 68.4046 117.099 63.6026 117.099C57.9886 117.099 50.7666 117.097 47.0556 117.095C43.3456 117.097 36.7266 117.099 31.6326 117.099C27.1596 117.099 25.4845 117.098 24.9215 117.098C24.7365 117.098 24.6716 117.098 24.6636 117.098C24.1136 116.996 20.2546 114.743 20.5946 111.341C21.0056 106.856 25.0916 105.32 25.5346 105.288H29.4286H29.8996V104.817V89.6199H64.4746V89.6199ZM64.9456 89.1489H29.4276V104.817C27.2196 104.817 25.6775 104.817 25.5335 104.817C24.9665 104.817 20.5616 106.53 20.1246 111.297C19.7446 115.111 24.0006 117.497 24.6036 117.565C24.7556 117.568 27.7516 117.569 31.6306 117.569C36.7246 117.569 43.3436 117.567 47.0536 117.565C50.7636 117.567 57.9866 117.569 63.6006 117.569C67.8766 117.569 71.2225 117.568 71.3745 117.565C71.9775 117.498 75.9896 115.44 75.6146 111.628C75.1736 106.86 71.0136 104.817 70.4456 104.817C70.2846 104.817 68.0226 104.817 64.9446 104.817V89.1489H64.9456Z" fill="#A6A8AB"/>
<path d="M14.3179 173.053C21.5949 158.316 31.2258 136.929 32.0328 119.653H62.3428C63.1618 137.069 73.8699 159.472 80.3989 173.053H14.3179Z" fill="url(#paint6_linear_15_499)"/>
<path d="M62.1175 119.888C63.0115 137.175 73.5005 159.247 80.0235 172.818H14.6965C21.9305 158.138 31.3815 137.037 32.2565 119.888H62.1175ZM62.5665 119.417H31.8065C31.0745 136.719 21.3655 158.277 13.9385 173.288H80.7715C73.7605 158.705 63.2965 136.719 62.5665 119.417Z" fill="#A6A8AB"/>
<path d="M2.3208 249.445C2.3358 248.467 2.4348 244.704 3.0708 242.708C3.8028 240.44 5.97879 238.292 6.00079 238.27L86.4858 238.337C86.8638 238.769 88.6988 240.937 89.2638 242.863C89.8148 244.744 90.0448 248.456 90.0988 249.444H2.3208V249.445Z" fill="url(#paint7_linear_15_499)"/>
<path d="M86.379 238.573C86.864 239.138 88.516 241.147 89.039 242.93C89.543 244.656 89.777 247.963 89.85 249.209H2.56104C2.58704 247.973 2.71204 244.609 3.29504 242.78C3.90504 240.889 5.556 239.072 6.034 238.572H86.379V238.573ZM86.592 238.102H5.836C5.836 238.102 3.60605 240.283 2.84705 242.636C2.09605 244.992 2.08301 249.68 2.08301 249.68H90.346C90.346 249.68 90.1411 245.02 89.4901 242.798C88.8391 240.578 86.592 238.102 86.592 238.102Z" fill="#A6A8AB"/>
<path d="M6.48389 236.255C4.36289 232.599 -0.316122 223.168 0.288878 212.047C0.678878 204.847 4.52587 197.669 7.92187 191.336C8.86087 189.582 9.75993 187.906 10.5289 186.33H82.7179C83.1399 187.161 83.5769 188.007 84.0219 188.868C87.8119 196.21 92.1079 204.53 92.5009 212.902C92.8509 220.322 90.6449 228.177 85.9439 236.256H6.48389V236.255Z" fill="url(#paint8_linear_15_499)"/>
<path d="M82.5735 186.564C82.9765 187.355 83.3915 188.158 83.8125 188.975C87.5925 196.295 91.8755 204.592 92.2675 212.912C92.6115 220.249 90.4385 228.023 85.8095 236.019H6.61849C4.47849 232.301 -0.0725195 223 0.52248 212.06C0.91048 204.912 4.7455 197.758 8.1285 191.445C9.0475 189.731 9.9195 188.106 10.6755 186.564H82.5735ZM82.8615 186.094H10.3815C6.87149 193.33 0.55851 202.703 0.0525098 212.034C-0.45449 221.368 2.78949 230.404 6.34749 236.491H86.0795C89.6375 230.405 93.1685 222.081 92.7365 212.89C92.2925 203.431 86.9035 194.053 82.8615 186.094Z" fill="#A6A8AB"/>
<path d="M10.7257 184.249C10.3567 184.228 9.4397 183.69 8.7027 182.735C8.1327 181.998 7.51569 180.812 7.80969 179.355C8.47769 175.802 11.4647 175.034 12.1677 175.034H81.6927C82.4887 175.034 85.5937 175.749 86.2507 179.245C86.5357 180.66 85.9077 181.846 85.3317 182.592C84.5337 183.624 83.5207 184.228 83.1257 184.25C82.9147 184.253 78.4627 184.254 72.5517 184.254C72.5507 184.253 10.9437 184.252 10.7257 184.249Z" fill="url(#paint9_linear_15_499)"/>
<path d="M81.6927 175.269C82.4467 175.269 85.3927 175.951 86.0217 179.294C86.2877 180.618 85.6927 181.74 85.1457 182.448C84.3767 183.445 83.4137 183.996 83.1327 184.013C82.9987 184.015 81.0557 184.016 72.5657 184.016L45.4866 184.013L20.2756 184.016C12.6276 184.016 10.8627 184.015 10.7507 184.014C10.4647 183.997 9.5977 183.508 8.8907 182.591C8.3497 181.892 7.76567 180.771 8.04267 179.395C8.68067 176.003 11.5046 175.269 12.1686 175.269H42.5176H48.4507H81.6927V175.269ZM81.6927 174.798C81.0387 174.798 58.5687 174.798 48.4497 174.798C48.4497 174.798 46.0567 174.798 42.5167 174.798C32.4017 174.798 12.8217 174.798 12.1677 174.798C11.2847 174.798 8.25966 175.687 7.57966 179.308C6.99466 182.206 9.79264 184.432 10.7236 184.484C10.9416 184.486 14.9266 184.487 20.2756 184.487C28.3066 184.487 39.4126 184.485 45.4866 184.484C51.5556 184.485 63.7027 184.487 72.5657 184.487C78.4717 184.487 82.9187 184.486 83.1397 184.484C84.0687 184.431 87.0677 182.099 86.4837 179.201C85.8007 175.58 82.5747 174.798 81.6927 174.798Z" fill="#A6A8AB"/>
<path d="M24.6107 117.329C24.0947 117.271 19.9967 114.967 20.3607 111.32C20.7887 106.641 25.1628 105.052 25.5348 105.052H29.6637V89.384H64.7107V105.052H70.4467C70.9687 105.052 74.9587 107.08 75.3817 111.649C75.7547 115.44 71.7027 117.291 71.3507 117.331C71.2187 117.333 67.8757 117.333 63.6027 117.333L24.6107 117.329Z" fill="url(#paint10_linear_15_499)"/>
<path d="M64.4746 89.6199V104.817V105.288H64.9456L70.4306 105.287C70.8366 105.335 74.7276 107.138 75.1466 111.674C75.4966 115.22 71.6686 117.044 71.3656 117.095C71.2336 117.097 68.4046 117.099 63.6026 117.099C57.9886 117.099 50.7666 117.097 47.0556 117.095C43.3456 117.097 36.7266 117.099 31.6326 117.099C27.1596 117.099 25.4845 117.098 24.9215 117.098C24.7365 117.098 24.6716 117.098 24.6636 117.098C24.1136 116.996 20.2546 114.743 20.5946 111.341C21.0056 106.856 25.0916 105.32 25.5346 105.288H29.4286H29.8996V104.817V89.6199H64.4746V89.6199ZM64.9456 89.1489H29.4276V104.817C27.2196 104.817 25.6775 104.817 25.5335 104.817C24.9665 104.817 20.5616 106.53 20.1246 111.297C19.7446 115.111 24.0006 117.497 24.6036 117.565C24.7556 117.568 27.7516 117.569 31.6306 117.569C36.7246 117.569 43.3436 117.567 47.0536 117.565C50.7636 117.567 57.9866 117.569 63.6006 117.569C67.8766 117.569 71.2225 117.568 71.3745 117.565C71.9775 117.498 75.9896 115.44 75.6146 111.628C75.1736 106.86 71.0136 104.817 70.4456 104.817C70.2846 104.817 68.0226 104.817 64.9446 104.817V89.1489H64.9456Z" fill="#A6A8AB"/>
<defs>
<linearGradient id="paint0_linear_15_499" x1="14.742" y1="146.351" x2="80.8128" y2="146.351" gradientUnits="userSpaceOnUse">
<stop stop-color="#CBCCCD"/>
<stop offset="0.6606" stop-color="#EBEBEB"/>
<stop offset="1" stop-color="white"/>
</linearGradient>
<linearGradient id="paint1_linear_15_499" x1="20.5812" y1="43.8796" x2="72.8288" y2="43.8796" gradientUnits="userSpaceOnUse">
<stop stop-color="#CBCCCD"/>
<stop offset="0.6606" stop-color="#EBEBEB"/>
<stop offset="1" stop-color="white"/>
</linearGradient>
<linearGradient id="paint2_linear_15_499" x1="2.8192" y1="243.901" x2="90.6122" y2="243.901" gradientUnits="userSpaceOnUse">
<stop stop-color="#CBCCCD"/>
<stop offset="0.6606" stop-color="#EBEBEB"/>
<stop offset="1" stop-color="white"/>
</linearGradient>
<linearGradient id="paint3_linear_15_499" x1="0.619433" y1="211.306" x2="92.9092" y2="211.306" gradientUnits="userSpaceOnUse">
<stop stop-color="#CBCCCD"/>
<stop offset="0.6606" stop-color="#EBEBEB"/>
<stop offset="1" stop-color="white"/>
</linearGradient>
<linearGradient id="paint4_linear_15_499" x1="7.45066" y1="179.627" x2="86.0484" y2="179.627" gradientUnits="userSpaceOnUse">
<stop stop-color="#CBCCCD"/>
<stop offset="0.6606" stop-color="#EBEBEB"/>
<stop offset="1" stop-color="white"/>
</linearGradient>
<linearGradient id="paint5_linear_15_499" x1="21.0458" y1="103.35" x2="76.1215" y2="103.35" gradientUnits="userSpaceOnUse">
<stop stop-color="#CBCCCD"/>
<stop offset="0.6606" stop-color="#EBEBEB"/>
<stop offset="1" stop-color="white"/>
</linearGradient>
<linearGradient id="paint6_linear_15_499" x1="14.742" y1="146.351" x2="80.8128" y2="146.351" gradientUnits="userSpaceOnUse">
<stop stop-color="#CBCCCD"/>
<stop offset="0.6606" stop-color="#EBEBEB"/>
<stop offset="1" stop-color="white"/>
</linearGradient>
<linearGradient id="paint7_linear_15_499" x1="2.8192" y1="243.901" x2="90.6122" y2="243.901" gradientUnits="userSpaceOnUse">
<stop stop-color="#CBCCCD"/>
<stop offset="0.6606" stop-color="#EBEBEB"/>
<stop offset="1" stop-color="white"/>
</linearGradient>
<linearGradient id="paint8_linear_15_499" x1="0.619433" y1="211.306" x2="92.9092" y2="211.306" gradientUnits="userSpaceOnUse">
<stop stop-color="#CBCCCD"/>
<stop offset="0.6606" stop-color="#EBEBEB"/>
<stop offset="1" stop-color="white"/>
</linearGradient>
<linearGradient id="paint9_linear_15_499" x1="7.45066" y1="179.627" x2="86.0484" y2="179.627" gradientUnits="userSpaceOnUse">
<stop stop-color="#CBCCCD"/>
<stop offset="0.6606" stop-color="#EBEBEB"/>
<stop offset="1" stop-color="white"/>
</linearGradient>
<linearGradient id="paint10_linear_15_499" x1="21.0458" y1="103.35" x2="76.1215" y2="103.35" gradientUnits="userSpaceOnUse">
<stop stop-color="#CBCCCD"/>
<stop offset="0.6606" stop-color="#EBEBEB"/>
<stop offset="1" stop-color="white"/>
</linearGradient>
</defs>
</svg>
