<svg width="90" height="196" viewBox="0 0 90 196" fill="none" xmlns="http://www.w3.org/2000/svg">
<path d="M1.31738 195.116C1.33638 194.247 1.44737 191.2 2.12537 189.577C2.90837 187.704 5.26839 185.918 5.29239 185.901L84.5804 185.947C84.5384 185.981 86.8434 187.968 87.5084 189.706C88.0894 191.234 88.3404 194.234 88.4044 195.116H1.31738Z" fill="url(#paint0_linear_15_496)"/>
<path d="M84.4086 186.183C84.9076 186.627 86.7226 188.312 87.2886 189.789C87.8116 191.166 88.0646 193.787 88.1506 194.88H1.55963C1.59163 193.8 1.73363 191.129 2.34363 189.668C3.00063 188.097 4.82563 186.571 5.31363 186.183H84.4086ZM84.5846 185.712H5.15063C5.15063 185.712 2.72563 187.532 1.90863 189.486C1.08963 191.448 1.07861 195.351 1.07861 195.351H88.6556C88.6556 195.351 88.4316 191.472 87.7286 189.622C87.0216 187.775 84.5846 185.712 84.5846 185.712Z" fill="#A6A8AB"/>
<path d="M5.82152 184.136C1.85152 178.874 -0.204486 171.373 0.316514 164.046C0.797514 157.255 5.26852 150.323 8.86052 144.754C9.32452 144.033 9.77653 143.333 10.2065 142.654H80.4115C83.5755 147.445 88.8755 156.691 89.4215 165.551C89.8525 172.584 88.0505 178.665 83.9145 184.136H5.82152Z" fill="url(#paint1_linear_15_496)"/>
<path d="M80.2845 142.889C83.4425 147.689 88.6475 156.824 89.1865 165.564C89.6105 172.499 87.8484 178.499 83.7954 183.9H5.93849C2.04649 178.686 0.0354848 171.291 0.550485 164.061C1.02848 157.332 5.47947 150.427 9.05647 144.881C9.49647 144.197 9.92548 143.533 10.3345 142.889H80.2845V142.889ZM80.5375 142.418H10.0765C6.27149 148.441 0.632491 156.259 0.0814907 164.028C-0.472509 171.797 1.84148 179.305 5.70448 184.371H84.0305C87.8895 179.305 90.1245 173.185 89.6555 165.536C89.1705 157.664 84.9295 149.044 80.5375 142.418Z" fill="#A6A8AB"/>
<path d="M10.4503 140.842C9.97834 140.823 9.07232 140.274 8.44432 139.423C8.00832 138.832 7.55132 137.889 7.85332 136.75C8.55632 133.88 11.0953 133.252 12.0153 133.252H79.2733C80.1933 133.252 82.7344 133.88 83.4314 136.746C83.7334 137.89 83.2783 138.833 82.8423 139.423C82.2143 140.275 81.3083 140.823 80.8303 140.842C80.5383 140.846 73.8583 140.847 65.8813 140.847C65.8803 140.847 10.7493 140.846 10.4503 140.842Z" fill="url(#paint2_linear_15_496)"/>
<path d="M79.2723 133.487C80.1413 133.487 82.5402 134.083 83.2042 136.81C83.4822 137.859 83.0573 138.734 82.6523 139.283C82.0413 140.112 81.1802 140.592 80.8332 140.607C80.5752 140.61 75.4052 140.612 65.8812 140.612L43.1432 140.609L22.9042 140.612C15.0172 140.612 10.7122 140.61 10.4662 140.607C10.1052 140.592 9.24421 140.112 8.63321 139.283C8.22821 138.733 7.80224 137.859 8.08124 136.802C8.74724 134.083 11.1452 133.487 12.0142 133.487H39.9232H46.3562H79.2723V133.487ZM79.2723 133.017C78.5633 133.017 57.3272 133.017 46.3552 133.017C46.3552 133.017 43.7642 133.017 39.9222 133.017C28.9482 133.017 12.7232 133.017 12.0132 133.017C11.0552 133.017 8.36123 133.674 7.62323 136.69C6.98623 139.1 9.43723 141.036 10.4452 141.078C10.7442 141.081 16.1742 141.083 22.9012 141.083C29.6302 141.083 37.6532 141.081 43.1412 141.08C48.6272 141.081 57.9012 141.083 65.8792 141.083C73.8582 141.083 80.5393 141.081 80.8373 141.078C81.8463 141.036 84.2952 139.1 83.6572 136.69C82.9252 133.674 80.2303 133.017 79.2723 133.017Z" fill="#A6A8AB"/>
<path d="M14.0224 131.308C21.0784 114.496 29.1714 87.0699 31.7504 71.1899L31.7944 70.9169L17.6224 70.9119C17.1694 70.8429 10.5214 67.4228 10.9554 61.6158C11.4534 54.4718 18.1434 51.8639 18.6904 51.8639H33.3904L33.4374 51.2829L33.2934 51.2129C24.1664 46.7779 18.2694 37.2849 18.2694 27.0259C18.2694 12.2539 30.1574 0.23584 44.7684 0.23584C59.3784 0.23584 71.2644 12.2539 71.2644 27.0259C71.2644 37.2839 65.3664 46.7779 56.2384 51.2129L56.0924 51.2839L56.1444 51.8639H70.6274C71.1974 51.8639 78.1494 54.4719 78.6464 61.6149C79.0794 67.3909 72.1694 70.8399 71.6724 70.9139L57.7364 70.9169L57.7804 71.1899C60.4404 87.5419 70.1834 116.596 77.9204 131.308H14.0224Z" fill="url(#paint3_linear_15_496)"/>
<path d="M44.7673 0.471008C59.2463 0.471008 71.0273 12.383 71.0273 27.026C71.0273 37.195 65.1813 46.606 56.1333 51L55.8413 51.142L55.8703 51.466L55.8883 51.671L55.9273 52.099H56.3583H70.6153C71.3143 52.157 77.9323 54.758 78.4103 61.633C78.8243 67.141 72.2013 70.564 71.6893 70.677C71.5913 70.68 70.3853 70.684 65.1893 70.684L58.0113 70.683H57.4583L57.5473 71.229C60.1893 87.474 69.8133 116.239 77.5303 131.074H14.3753C21.4053 114.222 29.4173 87.022 31.9813 71.229L32.0703 70.683H31.5173L24.2993 70.684C20.2553 70.684 18.6193 70.682 18.0113 70.682C17.7753 70.682 17.6953 70.683 17.6893 70.683C17.1413 70.567 10.7773 67.16 11.1903 61.632C11.6683 54.764 18.0313 52.157 18.6903 52.099H33.1733H33.6073L33.6423 51.666L33.6593 51.462L33.6853 51.141L33.3963 51C24.3503 46.606 18.5043 37.195 18.5043 27.026C18.5033 12.383 30.2853 0.471008 44.7673 0.471008ZM44.7673 0C30.0003 0 18.0333 12.099 18.0333 27.025C18.0333 37.764 24.2173 47.064 33.1893 51.423L33.1723 51.627C26.2653 51.627 19.0323 51.627 18.6893 51.627C18.0303 51.627 11.2283 54.298 10.7193 61.597C10.2833 67.437 16.9153 71.042 17.6133 71.145C17.7693 71.151 20.5303 71.153 24.2993 71.153C26.4723 71.153 28.9813 71.152 31.5173 71.152C28.8713 87.446 20.6733 114.959 13.6683 131.543H78.3103C70.6243 117.092 60.6643 87.456 58.0123 71.152C60.5643 71.152 63.0513 71.153 65.1903 71.153C68.8983 71.153 71.5613 71.152 71.7073 71.145C72.4023 71.041 79.3193 67.437 78.8813 61.597C78.3743 54.298 71.2883 51.627 70.6273 51.627C70.3153 51.627 63.3303 51.627 56.3593 51.627L56.3403 51.423C65.3133 47.064 71.4983 37.764 71.4983 27.025C71.4973 12.099 59.5253 0 44.7673 0Z" fill="#A6A8AB"/>
<path d="M1.31738 195.116C1.33638 194.247 1.44737 191.2 2.12537 189.577C2.90837 187.704 5.26839 185.918 5.29239 185.901L84.5804 185.947C84.5384 185.981 86.8434 187.968 87.5084 189.706C88.0894 191.234 88.3404 194.234 88.4044 195.116H1.31738Z" fill="url(#paint4_linear_15_496)"/>
<path d="M84.4086 186.183C84.9076 186.627 86.7226 188.312 87.2886 189.789C87.8116 191.166 88.0646 193.787 88.1506 194.88H1.55963C1.59163 193.8 1.73363 191.129 2.34363 189.668C3.00063 188.097 4.82563 186.571 5.31363 186.183H84.4086ZM84.5846 185.712H5.15063C5.15063 185.712 2.72563 187.532 1.90863 189.486C1.08963 191.448 1.07861 195.351 1.07861 195.351H88.6556C88.6556 195.351 88.4316 191.472 87.7286 189.622C87.0216 187.775 84.5846 185.712 84.5846 185.712Z" fill="#A6A8AB"/>
<path d="M5.82152 184.136C1.85152 178.874 -0.204486 171.373 0.316514 164.046C0.797514 157.255 5.26852 150.323 8.86052 144.754C9.32452 144.033 9.77653 143.333 10.2065 142.654H80.4115C83.5755 147.445 88.8755 156.691 89.4215 165.551C89.8525 172.584 88.0505 178.665 83.9145 184.136H5.82152Z" fill="url(#paint5_linear_15_496)"/>
<path d="M80.2845 142.889C83.4425 147.689 88.6475 156.824 89.1865 165.564C89.6105 172.499 87.8484 178.499 83.7954 183.9H5.93849C2.04649 178.686 0.0354848 171.291 0.550485 164.061C1.02848 157.332 5.47947 150.427 9.05647 144.881C9.49647 144.197 9.92548 143.533 10.3345 142.889H80.2845V142.889ZM80.5375 142.418H10.0765C6.27149 148.441 0.632491 156.259 0.0814907 164.028C-0.472509 171.797 1.84148 179.305 5.70448 184.371H84.0305C87.8895 179.305 90.1245 173.185 89.6555 165.536C89.1705 157.664 84.9295 149.044 80.5375 142.418Z" fill="#A6A8AB"/>
<path d="M10.4503 140.842C9.97834 140.823 9.07232 140.274 8.44432 139.423C8.00832 138.832 7.55132 137.889 7.85332 136.75C8.55632 133.88 11.0953 133.252 12.0153 133.252H79.2733C80.1933 133.252 82.7344 133.88 83.4314 136.746C83.7334 137.89 83.2783 138.833 82.8423 139.423C82.2143 140.275 81.3083 140.823 80.8303 140.842C80.5383 140.846 73.8583 140.847 65.8813 140.847C65.8803 140.847 10.7493 140.846 10.4503 140.842Z" fill="url(#paint6_linear_15_496)"/>
<path d="M79.2723 133.487C80.1413 133.487 82.5402 134.083 83.2042 136.81C83.4822 137.859 83.0573 138.734 82.6523 139.283C82.0413 140.112 81.1802 140.592 80.8332 140.607C80.5752 140.61 75.4052 140.612 65.8812 140.612L43.1432 140.609L22.9042 140.612C15.0172 140.612 10.7122 140.61 10.4662 140.607C10.1052 140.592 9.24421 140.112 8.63321 139.283C8.22821 138.733 7.80224 137.859 8.08124 136.802C8.74724 134.083 11.1452 133.487 12.0142 133.487H39.9232H46.3562H79.2723V133.487ZM79.2723 133.017C78.5633 133.017 57.3272 133.017 46.3552 133.017C46.3552 133.017 43.7642 133.017 39.9222 133.017C28.9482 133.017 12.7232 133.017 12.0132 133.017C11.0552 133.017 8.36123 133.674 7.62323 136.69C6.98623 139.1 9.43723 141.036 10.4452 141.078C10.7442 141.081 16.1742 141.083 22.9012 141.083C29.6302 141.083 37.6532 141.081 43.1412 141.08C48.6272 141.081 57.9012 141.083 65.8792 141.083C73.8582 141.083 80.5393 141.081 80.8373 141.078C81.8463 141.036 84.2952 139.1 83.6572 136.69C82.9252 133.674 80.2303 133.017 79.2723 133.017Z" fill="#A6A8AB"/>
<path d="M14.0224 131.308C21.0784 114.496 29.1714 87.0699 31.7504 71.1899L31.7944 70.9169L17.6224 70.9119C17.1694 70.8429 10.5214 67.4228 10.9554 61.6158C11.4534 54.4718 18.1434 51.8639 18.6904 51.8639H33.3904L33.4374 51.2829L33.2934 51.2129C24.1664 46.7779 18.2694 37.2849 18.2694 27.0259C18.2694 12.2539 30.1574 0.23584 44.7684 0.23584C59.3784 0.23584 71.2644 12.2539 71.2644 27.0259C71.2644 37.2839 65.3664 46.7779 56.2384 51.2129L56.0924 51.2839L56.1444 51.8639H70.6274C71.1974 51.8639 78.1494 54.4719 78.6464 61.6149C79.0794 67.3909 72.1694 70.8399 71.6724 70.9139L57.7364 70.9169L57.7804 71.1899C60.4404 87.5419 70.1834 116.596 77.9204 131.308H14.0224Z" fill="url(#paint7_linear_15_496)"/>
<path d="M44.7673 0.471008C59.2463 0.471008 71.0273 12.383 71.0273 27.026C71.0273 37.195 65.1813 46.606 56.1333 51L55.8413 51.142L55.8703 51.466L55.8883 51.671L55.9273 52.099H56.3583H70.6153C71.3143 52.157 77.9323 54.758 78.4103 61.633C78.8243 67.141 72.2013 70.564 71.6893 70.677C71.5913 70.68 70.3853 70.684 65.1893 70.684L58.0113 70.683H57.4583L57.5473 71.229C60.1893 87.474 69.8133 116.239 77.5303 131.074H14.3753C21.4053 114.222 29.4173 87.022 31.9813 71.229L32.0703 70.683H31.5173L24.2993 70.684C20.2553 70.684 18.6193 70.682 18.0113 70.682C17.7753 70.682 17.6953 70.683 17.6893 70.683C17.1413 70.567 10.7773 67.16 11.1903 61.632C11.6683 54.764 18.0313 52.157 18.6903 52.099H33.1733H33.6073L33.6423 51.666L33.6593 51.462L33.6853 51.141L33.3963 51C24.3503 46.606 18.5043 37.195 18.5043 27.026C18.5033 12.383 30.2853 0.471008 44.7673 0.471008ZM44.7673 0C30.0003 0 18.0333 12.099 18.0333 27.025C18.0333 37.764 24.2173 47.064 33.1893 51.423L33.1723 51.627C26.2653 51.627 19.0323 51.627 18.6893 51.627C18.0303 51.627 11.2283 54.298 10.7193 61.597C10.2833 67.437 16.9153 71.042 17.6133 71.145C17.7693 71.151 20.5303 71.153 24.2993 71.153C26.4723 71.153 28.9813 71.152 31.5173 71.152C28.8713 87.446 20.6733 114.959 13.6683 131.543H78.3103C70.6243 117.092 60.6643 87.456 58.0123 71.152C60.5643 71.152 63.0513 71.153 65.1903 71.153C68.8983 71.153 71.5613 71.152 71.7073 71.145C72.4023 71.041 79.3193 67.437 78.8813 61.597C78.3743 54.298 71.2883 51.627 70.6273 51.627C70.3153 51.627 63.3303 51.627 56.3593 51.627L56.3403 51.423C65.3133 47.064 71.4983 37.764 71.4983 27.025C71.4973 12.099 59.5253 0 44.7673 0Z" fill="#A6A8AB"/>
<defs>
<linearGradient id="paint0_linear_15_496" x1="1.71508" y1="190.509" x2="88.7889" y2="190.509" gradientUnits="userSpaceOnUse">
<stop stop-color="#CBCCCD"/>
<stop offset="0.6606" stop-color="#EBEBEB"/>
<stop offset="1" stop-color="white"/>
</linearGradient>
<linearGradient id="paint1_linear_15_496" x1="-0.14083" y1="163.398" x2="89.0938" y2="163.398" gradientUnits="userSpaceOnUse">
<stop stop-color="#CBCCCD"/>
<stop offset="0.6606" stop-color="#EBEBEB"/>
<stop offset="1" stop-color="white"/>
</linearGradient>
<linearGradient id="paint2_linear_15_496" x1="7.63341" y1="137.059" x2="83.379" y2="137.059" gradientUnits="userSpaceOnUse">
<stop stop-color="#CBCCCD"/>
<stop offset="0.6606" stop-color="#EBEBEB"/>
<stop offset="1" stop-color="white"/>
</linearGradient>
<linearGradient id="paint3_linear_15_496" x1="10.5274" y1="65.8072" x2="78.2524" y2="65.8072" gradientUnits="userSpaceOnUse">
<stop stop-color="#CBCCCD"/>
<stop offset="0.6606" stop-color="#EBEBEB"/>
<stop offset="1" stop-color="white"/>
</linearGradient>
<linearGradient id="paint4_linear_15_496" x1="1.71508" y1="190.509" x2="88.7889" y2="190.509" gradientUnits="userSpaceOnUse">
<stop stop-color="#CBCCCD"/>
<stop offset="0.6606" stop-color="#EBEBEB"/>
<stop offset="1" stop-color="white"/>
</linearGradient>
<linearGradient id="paint5_linear_15_496" x1="-0.14083" y1="163.398" x2="89.0938" y2="163.398" gradientUnits="userSpaceOnUse">
<stop stop-color="#CBCCCD"/>
<stop offset="0.6606" stop-color="#EBEBEB"/>
<stop offset="1" stop-color="white"/>
</linearGradient>
<linearGradient id="paint6_linear_15_496" x1="7.63341" y1="137.059" x2="83.379" y2="137.059" gradientUnits="userSpaceOnUse">
<stop stop-color="#CBCCCD"/>
<stop offset="0.6606" stop-color="#EBEBEB"/>
<stop offset="1" stop-color="white"/>
</linearGradient>
<linearGradient id="paint7_linear_15_496" x1="10.5274" y1="65.8072" x2="78.2524" y2="65.8072" gradientUnits="userSpaceOnUse">
<stop stop-color="#CBCCCD"/>
<stop offset="0.6606" stop-color="#EBEBEB"/>
<stop offset="1" stop-color="white"/>
</linearGradient>
</defs>
</svg>
