<svg width="107" height="273" viewBox="0 0 107 273" fill="none" xmlns="http://www.w3.org/2000/svg">
<path d="M14.959 203.982L16.106 201.85C26.298 182.949 35.103 166.617 37.813 124.894H70.922C73.662 167.034 83.074 184.236 93.038 202.45L93.874 203.982H14.959V203.982Z" fill="url(#paint0_linear_15_498)"/>
<path d="M70.7024 125.13C73.4644 167.158 82.8724 184.358 92.8314 202.563L93.4784 203.746H15.3534L16.3144 201.961C26.5024 183.067 35.3054 166.745 38.0344 125.13H70.7024ZM71.1434 124.66H37.5934C34.7834 168.345 25.1144 184.577 14.5654 204.218H94.2724C83.8644 185.147 73.9544 168.345 71.1434 124.66Z" fill="#A6A8AB"/>
<path d="M54.9404 34.1071C45.6014 34.1071 38.0034 26.5101 38.0034 17.1701C38.0034 7.83311 45.6014 0.235107 54.9404 0.235107C64.2774 0.235107 71.8754 7.8321 71.8754 17.1701C71.8754 26.5091 64.2774 34.1071 54.9404 34.1071Z" fill="url(#paint1_linear_15_498)"/>
<path d="M54.9401 0.470001C64.1481 0.470001 71.6391 7.96201 71.6391 17.17C71.6391 26.379 64.1471 33.871 54.9401 33.871C45.7311 33.871 38.2391 26.379 38.2391 17.17C38.2381 7.96201 45.7311 0.470001 54.9401 0.470001ZM54.9401 0C45.4561 0 37.7681 7.68801 37.7681 17.17C37.7681 26.654 45.4561 34.342 54.9401 34.342C64.4241 34.342 72.1101 26.654 72.1101 17.17C72.1101 7.68801 64.4241 0 54.9401 0Z" fill="#A6A8AB"/>
<path d="M1.41895 272.037C1.43895 271.133 1.559 267.863 2.302 266.127C3.16 264.125 5.73596 262.226 5.76196 262.208L101.177 262.253C101.134 262.284 103.664 264.403 104.394 266.265C105.032 267.899 105.306 271.119 105.373 272.037H1.41895Z" fill="url(#paint2_linear_15_498)"/>
<path d="M101.008 262.488C101.534 262.942 103.548 264.752 104.175 266.348C104.753 267.829 105.028 270.657 105.12 271.801H1.66113C1.69513 270.672 1.84717 267.789 2.51917 266.219C3.24617 264.523 5.26917 262.885 5.78217 262.487H101.008V262.488ZM101.18 262.017H5.62317C5.62317 262.017 2.97818 263.95 2.08618 266.034C1.19218 268.119 1.18018 272.272 1.18018 272.272H105.625C105.625 272.272 105.38 268.145 104.613 266.178C103.84 264.209 101.18 262.017 101.18 262.017Z" fill="#A6A8AB"/>
<path d="M6.3412 260.355C2.0042 254.749 -0.244778 246.761 0.322222 238.961C0.849222 231.736 5.72521 224.364 9.64321 218.44C10.1562 217.665 10.6542 216.912 11.1272 216.183H96.6432C100.094 221.283 105.884 231.135 106.478 240.561C106.952 248.049 104.983 254.524 100.459 260.354H6.3412V260.355Z" fill="url(#paint3_linear_15_498)"/>
<path d="M96.5172 216.42C99.9632 221.529 105.655 231.27 106.243 240.578C106.711 247.967 104.782 254.362 100.344 260.12H6.45819C2.20119 254.563 -0.00177324 246.68 0.558227 238.978C1.08023 231.815 5.93719 224.472 9.84119 218.57C10.3282 217.833 10.8032 217.115 11.2552 216.42H96.5172ZM96.7672 215.949H10.9992C6.84721 222.36 0.691195 230.677 0.088195 238.944C-0.513805 247.208 2.0132 255.198 6.2262 260.59H100.573C104.787 255.198 107.227 248.684 106.712 240.548C106.184 232.169 101.556 223.002 96.7672 215.949Z" fill="#A6A8AB"/>
<path d="M11.4044 214.288C10.8644 214.266 9.82935 213.63 9.16035 212.718C8.70435 212.095 8.22838 211.105 8.55238 209.913C9.31638 206.851 12.1044 206.182 13.1134 206.182H95.3834C96.3934 206.182 99.1783 206.851 99.9453 209.909C100.268 211.106 99.7914 212.098 99.3344 212.72C98.6444 213.661 97.6294 214.266 97.0864 214.288C96.8364 214.292 91.7694 214.293 84.9824 214.293C84.9814 214.293 11.6604 214.293 11.4044 214.288Z" fill="url(#paint4_linear_15_498)"/>
<path d="M95.3832 206.417C96.3412 206.417 98.9872 207.055 99.7182 209.974C100.015 211.076 99.5702 212 99.1442 212.58C98.4672 213.502 97.4912 214.036 97.0882 214.053C96.8602 214.055 92.7862 214.057 84.9812 214.057L52.5372 214.053L22.3492 214.057C15.3162 214.057 11.6362 214.055 11.4222 214.053C11.0052 214.036 10.0282 213.501 9.35116 212.578C8.92616 211.998 8.48117 211.076 8.78317 209.965C9.50917 207.053 12.1562 206.417 13.1142 206.417H49.0272H56.0472H95.3832V206.417ZM95.3832 205.946C94.6102 205.946 68.0202 205.946 56.0472 205.946C56.0472 205.946 53.2192 205.946 49.0272 205.946C37.0582 205.946 13.8892 205.946 13.1142 205.946C12.0692 205.946 9.1272 206.643 8.3262 209.851C7.6292 212.418 10.3032 214.479 11.4032 214.524C11.6592 214.527 16.2012 214.528 22.3502 214.528C31.8772 214.528 45.2622 214.525 52.5382 214.524C59.8142 214.525 74.4632 214.528 84.9822 214.528C91.7712 214.528 96.8382 214.527 97.0952 214.524C98.1942 214.479 100.866 212.419 100.172 209.851C99.3682 206.643 96.4282 205.946 95.3832 205.946Z" fill="#A6A8AB"/>
<path d="M33.0601 123.171C27.9321 123.171 23.926 123.169 23.727 123.164C23.053 123.086 17.751 120.07 18.22 115.3C18.774 109.186 24.429 107.109 24.911 107.109H35.04L35.054 106.888C36.683 81.328 23.7441 59.784 14.4871 53.271C13.1371 52.322 6.64206 47.252 11.3361 40.552C13.6481 37.247 16.796 36.754 18.466 36.754C19.183 36.754 19.901 36.844 20.488 37.007C21.071 37.169 21.858 37.592 22.768 38.083C24.784 39.166 27.544 40.652 30.604 40.652C35.314 40.652 39.6921 38.216 42.5811 36.129C45.9691 38.595 50.004 41.081 54.346 41.081C58.572 41.081 62.497 38.702 65.446 36.627C65.635 36.426 65.801 36.261 65.966 36.125L66.101 36.114C66.465 36.383 66.8431 36.684 67.2321 37.002C70.9581 39.43 74.5491 40.652 77.9271 40.652C80.9891 40.652 83.75 39.167 85.765 38.082C86.675 37.592 87.462 37.169 88.044 37.007C88.631 36.844 89.35 36.754 90.067 36.754C91.738 36.754 94.887 37.247 97.2 40.552C101.888 47.248 95.398 52.321 94.049 53.271C84.832 59.751 71.919 81.216 73.475 106.705L73.433 106.976L73.682 107.108H82.385C83.06 107.108 88.22 109.756 88.764 115.725C89.228 120.461 84.355 123.074 83.55 123.165C83.397 123.168 79.923 123.171 73.246 123.171H33.0601V123.171Z" fill="url(#paint5_linear_15_498)"/>
<path d="M66.0212 36.3881L66.1202 36.4291L66.1252 36.4261C66.4372 36.6611 66.7642 36.9241 67.1252 37.2151C70.8682 39.6531 74.5022 40.8881 77.9272 40.8881C81.0482 40.8881 83.8391 39.3871 85.8771 38.2901C86.7751 37.8071 87.5512 37.3901 88.1072 37.2341C88.6752 37.0771 89.3721 36.9901 90.0691 36.9901C91.6941 36.9901 94.7561 37.4711 97.0091 40.6881C101.569 47.2011 95.2311 52.1511 93.9151 53.0781C84.6611 59.5851 71.6971 81.1142 73.2391 106.668L73.2181 106.801L73.1332 107.344H73.6821H82.3771C83.1501 107.406 88.0122 110.077 88.5292 115.75C88.9942 120.491 83.9611 122.876 83.5641 122.928C83.4461 122.932 81.5591 122.935 73.2381 122.935L52.4521 122.931L33.0671 122.935C25.5641 122.935 23.8491 122.932 23.7751 122.932C23.0821 122.826 18.0081 119.872 18.4541 115.319C18.9881 109.433 24.4261 107.363 24.9111 107.344H34.8191H35.2601L35.2881 106.904C36.9231 81.2541 23.9231 59.6221 14.6211 53.0781C13.3031 52.1521 6.96214 47.2051 11.5271 40.6881C13.7801 37.4711 16.8411 36.9901 18.4651 36.9901C19.1611 36.9901 19.8571 37.0771 20.4241 37.2341C20.9811 37.3901 21.7571 37.8071 22.6561 38.2911C24.6931 39.3881 27.4841 40.8881 30.6031 40.8881C35.3011 40.8881 39.6621 38.5061 42.5791 36.4201C45.9701 38.8761 49.9961 41.3162 54.3451 41.3162C58.6371 41.3162 62.6031 38.9131 65.5801 36.8201L65.6221 36.7901L65.6571 36.7511L66.0212 36.3881ZM65.9521 35.8381C65.7341 35.9991 65.5192 36.2051 65.3102 36.4361C62.1632 38.6491 58.3731 40.8471 54.3461 40.8471C49.9311 40.8471 45.8932 38.2611 42.5812 35.8391C39.2692 38.2611 35.0191 40.4191 30.6041 40.4191C26.2201 40.4191 22.4771 37.3171 20.5511 36.7821C20.0211 36.6351 19.2991 36.5201 18.4661 36.5201C16.2701 36.5201 13.3141 37.3171 11.1421 40.4191C6.99013 46.3471 11.2421 51.2801 14.3511 53.4641C24.0441 60.2841 36.3862 82.2831 34.8182 106.875C29.5262 106.875 25.1861 106.875 24.9101 106.875C24.1811 106.875 18.5451 109.1 17.9851 115.278C17.5001 120.222 22.9481 123.313 23.7201 123.4C23.9191 123.406 27.9311 123.408 33.0671 123.408C39.5371 123.408 47.7891 123.405 52.4521 123.403C57.1151 123.405 66.1121 123.408 73.2381 123.408C78.8961 123.408 83.3751 123.406 83.5761 123.4C84.3451 123.313 89.4821 120.648 88.9981 115.706C88.4341 109.525 83.1121 106.875 82.3841 106.875C82.1481 106.875 78.4561 106.875 73.6811 106.875L73.7101 106.692C72.2121 82.1741 84.5101 60.2671 94.1841 53.4641C97.2881 51.2801 101.543 46.3461 97.3931 40.4191C95.2221 37.3171 92.2642 36.5201 90.0682 36.5201C89.2342 36.5201 88.5091 36.6351 87.9801 36.7821C86.0551 37.3171 82.3121 40.4191 77.9261 40.4191C74.1191 40.4191 70.4411 38.8151 67.3801 36.8211C66.9511 36.4711 66.5371 36.1411 66.1391 35.8521L66.0522 35.9111L65.9521 35.8381Z" fill="#A6A8AB"/>
<path d="M14.959 203.982L16.106 201.85C26.298 182.949 35.103 166.617 37.813 124.894H70.922C73.662 167.034 83.074 184.236 93.038 202.45L93.874 203.982H14.959V203.982Z" fill="url(#paint6_linear_15_498)"/>
<path d="M70.7024 125.13C73.4644 167.158 82.8724 184.358 92.8314 202.563L93.4784 203.746H15.3534L16.3144 201.961C26.5024 183.067 35.3054 166.745 38.0344 125.13H70.7024ZM71.1434 124.66H37.5934C34.7834 168.345 25.1144 184.577 14.5654 204.218H94.2724C83.8644 185.147 73.9544 168.345 71.1434 124.66Z" fill="#A6A8AB"/>
<path d="M1.41895 272.037C1.43895 271.133 1.559 267.863 2.302 266.127C3.16 264.125 5.73596 262.226 5.76196 262.208L101.177 262.253C101.134 262.284 103.664 264.403 104.394 266.265C105.032 267.899 105.306 271.119 105.373 272.037H1.41895Z" fill="url(#paint7_linear_15_498)"/>
<path d="M101.008 262.488C101.534 262.942 103.548 264.752 104.175 266.348C104.753 267.829 105.028 270.657 105.12 271.801H1.66113C1.69513 270.672 1.84717 267.789 2.51917 266.219C3.24617 264.523 5.26917 262.885 5.78217 262.487H101.008V262.488ZM101.18 262.017H5.62317C5.62317 262.017 2.97818 263.95 2.08618 266.034C1.19218 268.119 1.18018 272.272 1.18018 272.272H105.625C105.625 272.272 105.38 268.145 104.613 266.178C103.84 264.209 101.18 262.017 101.18 262.017Z" fill="#A6A8AB"/>
<path d="M6.3412 260.355C2.0042 254.749 -0.244778 246.761 0.322222 238.961C0.849222 231.736 5.72521 224.364 9.64321 218.44C10.1562 217.665 10.6542 216.912 11.1272 216.183H96.6432C100.094 221.283 105.884 231.135 106.478 240.561C106.952 248.049 104.983 254.524 100.459 260.354H6.3412V260.355Z" fill="url(#paint8_linear_15_498)"/>
<path d="M96.5172 216.42C99.9632 221.529 105.655 231.27 106.243 240.578C106.711 247.967 104.782 254.362 100.344 260.12H6.45819C2.20119 254.563 -0.00177324 246.68 0.558227 238.978C1.08023 231.815 5.93719 224.472 9.84119 218.57C10.3282 217.833 10.8032 217.115 11.2552 216.42H96.5172ZM96.7672 215.949H10.9992C6.84721 222.36 0.691195 230.677 0.088195 238.944C-0.513805 247.208 2.0132 255.198 6.2262 260.59H100.573C104.787 255.198 107.227 248.684 106.712 240.548C106.184 232.169 101.556 223.002 96.7672 215.949Z" fill="#A6A8AB"/>
<path d="M11.4044 214.288C10.8644 214.266 9.82935 213.63 9.16035 212.718C8.70435 212.095 8.22838 211.105 8.55238 209.913C9.31638 206.851 12.1044 206.182 13.1134 206.182H95.3834C96.3934 206.182 99.1783 206.851 99.9453 209.909C100.268 211.106 99.7914 212.098 99.3344 212.72C98.6444 213.661 97.6294 214.266 97.0864 214.288C96.8364 214.292 91.7694 214.293 84.9824 214.293C84.9814 214.293 11.6604 214.293 11.4044 214.288Z" fill="url(#paint9_linear_15_498)"/>
<path d="M95.3832 206.417C96.3412 206.417 98.9872 207.055 99.7182 209.974C100.015 211.076 99.5702 212 99.1442 212.58C98.4672 213.502 97.4912 214.036 97.0882 214.053C96.8602 214.055 92.7862 214.057 84.9812 214.057L52.5372 214.053L22.3492 214.057C15.3162 214.057 11.6362 214.055 11.4222 214.053C11.0052 214.036 10.0282 213.501 9.35116 212.578C8.92616 211.998 8.48117 211.076 8.78317 209.965C9.50917 207.053 12.1562 206.417 13.1142 206.417H49.0272H56.0472H95.3832V206.417ZM95.3832 205.946C94.6102 205.946 68.0202 205.946 56.0472 205.946C56.0472 205.946 53.2192 205.946 49.0272 205.946C37.0582 205.946 13.8892 205.946 13.1142 205.946C12.0692 205.946 9.1272 206.643 8.3262 209.851C7.6292 212.418 10.3032 214.479 11.4032 214.524C11.6592 214.527 16.2012 214.528 22.3502 214.528C31.8772 214.528 45.2622 214.525 52.5382 214.524C59.8142 214.525 74.4632 214.528 84.9822 214.528C91.7712 214.528 96.8382 214.527 97.0952 214.524C98.1942 214.479 100.866 212.419 100.172 209.851C99.3682 206.643 96.4282 205.946 95.3832 205.946Z" fill="#A6A8AB"/>
<path d="M33.0601 123.171C27.9321 123.171 23.926 123.169 23.727 123.164C23.053 123.086 17.751 120.07 18.22 115.3C18.774 109.186 24.429 107.109 24.911 107.109H35.04L35.054 106.888C36.683 81.328 23.7441 59.784 14.4871 53.271C13.1371 52.322 6.64206 47.252 11.3361 40.552C13.6481 37.247 16.796 36.754 18.466 36.754C19.183 36.754 19.901 36.844 20.488 37.007C21.071 37.169 21.858 37.592 22.768 38.083C24.784 39.166 27.544 40.652 30.604 40.652C35.314 40.652 39.6921 38.216 42.5811 36.129C45.9691 38.595 50.004 41.081 54.346 41.081C58.572 41.081 62.497 38.702 65.446 36.627C65.635 36.426 65.801 36.261 65.966 36.125L66.101 36.114C66.465 36.383 66.8431 36.684 67.2321 37.002C70.9581 39.43 74.5491 40.652 77.9271 40.652C80.9891 40.652 83.75 39.167 85.765 38.082C86.675 37.592 87.462 37.169 88.044 37.007C88.631 36.844 89.35 36.754 90.067 36.754C91.738 36.754 94.887 37.247 97.2 40.552C101.888 47.248 95.398 52.321 94.049 53.271C84.832 59.751 71.919 81.216 73.475 106.705L73.433 106.976L73.682 107.108H82.385C83.06 107.108 88.22 109.756 88.764 115.725C89.228 120.461 84.355 123.074 83.55 123.165C83.397 123.168 79.923 123.171 73.246 123.171H33.0601V123.171Z" fill="url(#paint10_linear_15_498)"/>
<path d="M66.0212 36.3881L66.1202 36.4291L66.1252 36.4261C66.4372 36.6611 66.7642 36.9241 67.1252 37.2151C70.8682 39.6531 74.5022 40.8881 77.9272 40.8881C81.0482 40.8881 83.8391 39.3871 85.8771 38.2901C86.7751 37.8071 87.5512 37.3901 88.1072 37.2341C88.6752 37.0771 89.3721 36.9901 90.0691 36.9901C91.6941 36.9901 94.7561 37.4711 97.0091 40.6881C101.569 47.2011 95.2311 52.1511 93.9151 53.0781C84.6611 59.5851 71.6971 81.1142 73.2391 106.668L73.2181 106.801L73.1332 107.344H73.6821H82.3771C83.1501 107.406 88.0122 110.077 88.5292 115.75C88.9942 120.491 83.9611 122.876 83.5641 122.928C83.4461 122.932 81.5591 122.935 73.2381 122.935L52.4521 122.931L33.0671 122.935C25.5641 122.935 23.8491 122.932 23.7751 122.932C23.0821 122.826 18.0081 119.872 18.4541 115.319C18.9881 109.433 24.4261 107.363 24.9111 107.344H34.8191H35.2601L35.2881 106.904C36.9231 81.2541 23.9231 59.6221 14.6211 53.0781C13.3031 52.1521 6.96214 47.2051 11.5271 40.6881C13.7801 37.4711 16.8411 36.9901 18.4651 36.9901C19.1611 36.9901 19.8571 37.0771 20.4241 37.2341C20.9811 37.3901 21.7571 37.8071 22.6561 38.2911C24.6931 39.3881 27.4841 40.8881 30.6031 40.8881C35.3011 40.8881 39.6621 38.5061 42.5791 36.4201C45.9701 38.8761 49.9961 41.3162 54.3451 41.3162C58.6371 41.3162 62.6031 38.9131 65.5801 36.8201L65.6221 36.7901L65.6571 36.7511L66.0212 36.3881ZM65.9521 35.8381C65.7341 35.9991 65.5192 36.2051 65.3102 36.4361C62.1632 38.6491 58.3731 40.8471 54.3461 40.8471C49.9311 40.8471 45.8932 38.2611 42.5812 35.8391C39.2692 38.2611 35.0191 40.4191 30.6041 40.4191C26.2201 40.4191 22.4771 37.3171 20.5511 36.7821C20.0211 36.6351 19.2991 36.5201 18.4661 36.5201C16.2701 36.5201 13.3141 37.3171 11.1421 40.4191C6.99013 46.3471 11.2421 51.2801 14.3511 53.4641C24.0441 60.2841 36.3862 82.2831 34.8182 106.875C29.5262 106.875 25.1861 106.875 24.9101 106.875C24.1811 106.875 18.5451 109.1 17.9851 115.278C17.5001 120.222 22.9481 123.313 23.7201 123.4C23.9191 123.406 27.9311 123.408 33.0671 123.408C39.5371 123.408 47.7891 123.405 52.4521 123.403C57.1151 123.405 66.1121 123.408 73.2381 123.408C78.8961 123.408 83.3751 123.406 83.5761 123.4C84.3451 123.313 89.4821 120.648 88.9981 115.706C88.4341 109.525 83.1121 106.875 82.3841 106.875C82.1481 106.875 78.4561 106.875 73.6811 106.875L73.7101 106.692C72.2121 82.1741 84.5101 60.2671 94.1841 53.4641C97.2881 51.2801 101.543 46.3461 97.3931 40.4191C95.2221 37.3171 92.2642 36.5201 90.0682 36.5201C89.2342 36.5201 88.5091 36.6351 87.9801 36.7821C86.0551 37.3171 82.3121 40.4191 77.9261 40.4191C74.1191 40.4191 70.4411 38.8151 67.3801 36.8211C66.9511 36.4711 66.5371 36.1411 66.1391 35.8521L66.0522 35.9111L65.9521 35.8381Z" fill="#A6A8AB"/>
<defs>
<linearGradient id="paint0_linear_15_498" x1="14.1959" y1="164.388" x2="93.1249" y2="164.388" gradientUnits="userSpaceOnUse">
<stop stop-color="#CBCCCD"/>
<stop offset="0.6606" stop-color="#EBEBEB"/>
<stop offset="1" stop-color="white"/>
</linearGradient>
<linearGradient id="paint1_linear_15_498" x1="38.1597" y1="17.1551" x2="72.0264" y2="17.1551" gradientUnits="userSpaceOnUse">
<stop stop-color="#CBCCCD"/>
<stop offset="0.6606" stop-color="#EBEBEB"/>
<stop offset="1" stop-color="white"/>
</linearGradient>
<linearGradient id="paint2_linear_15_498" x1="0.888103" y1="267.189" x2="104.827" y2="267.189" gradientUnits="userSpaceOnUse">
<stop stop-color="#CBCCCD"/>
<stop offset="0.6606" stop-color="#EBEBEB"/>
<stop offset="1" stop-color="white"/>
</linearGradient>
<linearGradient id="paint3_linear_15_498" x1="0.438691" y1="238.297" x2="106.734" y2="238.297" gradientUnits="userSpaceOnUse">
<stop stop-color="#CBCCCD"/>
<stop offset="0.6606" stop-color="#EBEBEB"/>
<stop offset="1" stop-color="white"/>
</linearGradient>
<linearGradient id="paint4_linear_15_498" x1="8.98147" y1="210.288" x2="100.574" y2="210.288" gradientUnits="userSpaceOnUse">
<stop stop-color="#CBCCCD"/>
<stop offset="0.6606" stop-color="#EBEBEB"/>
<stop offset="1" stop-color="white"/>
</linearGradient>
<linearGradient id="paint5_linear_15_498" x1="10.0525" y1="79.708" x2="99.2842" y2="79.708" gradientUnits="userSpaceOnUse">
<stop stop-color="#CBCCCD"/>
<stop offset="0.6606" stop-color="#EBEBEB"/>
<stop offset="1" stop-color="white"/>
</linearGradient>
<linearGradient id="paint6_linear_15_498" x1="14.1959" y1="164.388" x2="93.1249" y2="164.388" gradientUnits="userSpaceOnUse">
<stop stop-color="#CBCCCD"/>
<stop offset="0.6606" stop-color="#EBEBEB"/>
<stop offset="1" stop-color="white"/>
</linearGradient>
<linearGradient id="paint7_linear_15_498" x1="0.888103" y1="267.189" x2="104.827" y2="267.189" gradientUnits="userSpaceOnUse">
<stop stop-color="#CBCCCD"/>
<stop offset="0.6606" stop-color="#EBEBEB"/>
<stop offset="1" stop-color="white"/>
</linearGradient>
<linearGradient id="paint8_linear_15_498" x1="0.438691" y1="238.297" x2="106.734" y2="238.297" gradientUnits="userSpaceOnUse">
<stop stop-color="#CBCCCD"/>
<stop offset="0.6606" stop-color="#EBEBEB"/>
<stop offset="1" stop-color="white"/>
</linearGradient>
<linearGradient id="paint9_linear_15_498" x1="8.98147" y1="210.288" x2="100.574" y2="210.288" gradientUnits="userSpaceOnUse">
<stop stop-color="#CBCCCD"/>
<stop offset="0.6606" stop-color="#EBEBEB"/>
<stop offset="1" stop-color="white"/>
</linearGradient>
<linearGradient id="paint10_linear_15_498" x1="10.0525" y1="79.708" x2="99.2842" y2="79.708" gradientUnits="userSpaceOnUse">
<stop stop-color="#CBCCCD"/>
<stop offset="0.6606" stop-color="#EBEBEB"/>
<stop offset="1" stop-color="white"/>
</linearGradient>
</defs>
</svg>
