<svg width="113" height="221" viewBox="0 0 113 221" fill="none" xmlns="http://www.w3.org/2000/svg">
<path d="M13.8106 150.135C-1.58339 129.117 -9.28543 41.7759 26.1926 15.3019C34.4716 9.12094 45.9876 5.43097 56.9926 5.43097C61.1816 5.43097 65.1366 5.98593 68.4246 7.03693L68.5736 7.08392L68.6746 6.96594C70.4346 4.92494 72.4745 3.07694 75.0895 1.15894C80.4855 5.86694 79.2916 8.71595 78.1346 11.4709C77.8896 12.0589 77.6466 12.641 77.4676 13.231L77.4106 13.4169L77.5836 13.5079C79.3546 14.4359 83.7885 17.3759 86.7095 24.6049C89.8655 32.3959 99.4536 44.026 106.822 49.004C114.885 54.449 112.819 58.4749 109.961 64.0449C107.091 69.6479 103.159 73.626 102.429 74.338C100.596 73.389 99.3746 72.436 98.1936 71.512C96.6196 70.285 95.1356 69.1259 92.4096 68.0809C90.3226 67.2789 87.8355 66.8729 85.0175 66.8729C81.6875 66.8729 77.9626 67.4289 73.9476 68.5269C72.3626 68.9609 70.8625 69.1799 69.4915 69.1799C59.3995 69.1799 58.6886 57.7579 58.6406 56.4559C58.5786 54.8069 57.5286 53.9169 56.5706 53.9169C55.6206 53.9169 54.4875 54.7609 54.4235 57.1389C53.8025 80.5199 71.2205 105.413 87.7045 118.698L83.7656 150.133H13.8106V150.135Z" fill="url(#paint0_linear_15_501)"/>
<path d="M75.0759 1.46088C80.1829 5.97888 79.0809 8.60486 77.9169 11.3809C77.6749 11.9609 77.4248 12.5589 77.2408 13.1629L77.1289 13.5369L77.4729 13.7179C79.2209 14.6339 83.5989 17.5378 86.4929 24.6938C89.6619 32.5198 99.2909 44.2009 106.692 49.1999C114.581 54.5289 112.555 58.4759 109.751 63.9399C107.03 69.2519 103.346 73.0959 102.386 74.0509C100.657 73.1389 99.4789 72.2199 98.3369 71.3289C96.7499 70.0899 95.2519 68.9199 92.4939 67.8629C90.3799 67.0509 87.8648 66.6389 85.0168 66.6389C81.6648 66.6389 77.9189 67.1979 73.8839 68.3009C72.3199 68.7289 70.8419 68.9469 69.4899 68.9469C59.6189 68.9469 58.9209 57.7279 58.8749 56.4479C58.8069 54.6519 57.6378 53.6829 56.5688 53.6829C55.5118 53.6829 54.2559 54.5859 54.1869 57.1339C53.5649 80.5469 70.9548 105.46 87.4538 118.8L83.5569 149.899H13.9309C-1.38011 128.761 -8.99711 41.8549 26.3319 15.4889C34.5739 9.33789 46.0348 5.66486 56.9918 5.66486C61.1578 5.66486 65.0869 6.21686 68.3519 7.26086L68.6478 7.3559L68.8508 7.11987C70.5638 5.13287 72.5499 3.32788 75.0759 1.46088ZM75.1019 0.858887C72.8849 2.47389 70.6008 4.36989 68.4968 6.81189C65.1518 5.74289 61.2129 5.19385 56.9929 5.19385C46.8539 5.19385 35.0898 8.36388 26.0528 15.1119C-9.69216 41.7869 -1.62915 129.682 13.6929 150.369H83.9729L87.9548 118.598C71.5158 105.395 54.0358 80.5909 54.6578 57.1469C54.7138 55.0599 55.6488 54.1539 56.5698 54.1539C57.4668 54.1539 58.3499 55.0089 58.4049 56.4659C58.5859 61.3699 61.0518 69.4169 69.4908 69.4169C70.8408 69.4169 72.3409 69.2119 74.0099 68.7549C77.7719 67.7279 81.5508 67.1099 85.0178 67.1099C87.6878 67.1099 90.1739 67.4759 92.3259 68.3019C97.1459 70.1489 98.0849 72.3959 102.472 74.6249C102.472 74.6249 106.956 70.4309 110.172 64.1529C113.145 58.3609 115.01 54.2489 106.956 48.8089C99.8779 44.0279 90.2099 32.6139 86.9299 24.5169C84.4339 18.3399 80.6128 14.8299 77.6938 13.2999C78.7288 9.88587 81.9569 6.75689 75.1019 0.858887Z" fill="#A6A8AB"/>
<path d="M2.00391 220.574C2.02391 219.649 2.13691 216.242 2.85791 214.434C3.68891 212.359 6.17993 210.391 6.20593 210.372L89.8408 210.421C89.7948 210.456 92.2369 212.648 92.9429 214.576C93.5629 216.278 93.8269 219.635 93.8909 220.573H2.00391V220.574Z" fill="url(#paint1_linear_15_501)"/>
<path d="M89.6606 210.657C90.1796 211.139 92.1156 213.008 92.7186 214.657C93.2806 216.204 93.5496 219.165 93.6366 220.339H2.24463C2.27563 219.179 2.42168 216.164 3.07568 214.522C3.77668 212.772 5.71768 211.08 6.22668 210.658H89.6606V210.657ZM89.8436 210.187H6.06067C6.06067 210.187 3.50267 212.189 2.63867 214.348C1.77867 216.508 1.76562 220.81 1.76562 220.81H94.1396C94.1396 220.81 93.9026 216.534 93.1616 214.497C92.4156 212.456 89.8436 210.187 89.8436 210.187Z" fill="#A6A8AB"/>
<path d="M6.76088 208.336C2.56888 202.519 0.395893 194.241 0.947893 186.164C1.45189 178.685 6.16392 171.053 9.94692 164.919C10.4459 164.113 10.9288 163.329 11.3878 162.571H85.4498C88.7838 167.854 94.3809 178.056 94.9599 187.823C95.4159 195.584 93.5119 202.296 89.1399 208.336H6.76088Z" fill="url(#paint2_linear_15_501)"/>
<path d="M85.3187 162.806C88.6497 168.1 94.1527 178.189 94.7237 187.836C95.1747 195.5 93.3077 202.131 89.0167 208.101H6.8807C2.7647 202.332 0.635773 194.159 1.17977 186.179C1.68177 178.759 6.37469 171.154 10.1467 165.044C10.6207 164.276 11.0807 163.53 11.5197 162.807H85.3187V162.806ZM85.5777 162.335H11.2557C7.2437 168.975 1.28976 177.588 0.711756 186.147C0.127756 194.71 2.57171 202.982 6.64071 208.571H89.2597C93.3327 202.983 95.6908 196.237 95.1958 187.808C94.6808 179.135 90.2077 169.64 85.5777 162.335Z" fill="#A6A8AB"/>
<path d="M11.6461 160.765C11.1781 160.744 10.2541 160.173 9.5941 159.287C9.0941 158.613 8.56506 157.533 8.89806 156.219C9.64306 153.043 12.3271 152.347 13.2971 152.347H84.2372C85.2112 152.347 87.9011 153.042 88.6391 156.214C88.9751 157.532 88.4471 158.611 87.9471 159.285C87.2871 160.173 86.3622 160.743 85.8832 160.764C85.6252 160.766 80.5521 160.766 73.9051 160.766C73.9061 160.767 11.9141 160.767 11.6461 160.765Z" fill="url(#paint3_linear_15_501)"/>
<path d="M84.2378 152.583C85.1608 152.583 87.7068 153.245 88.4148 156.277C88.7258 157.502 88.2288 158.512 87.7588 159.145C87.1058 160.023 86.2427 160.514 85.8917 160.529C85.6237 160.532 80.5427 160.532 73.8907 160.532L46.1328 160.529L21.6167 160.532C16.0547 160.532 11.9167 160.532 11.6657 160.529C11.2957 160.514 10.4368 160.024 9.78476 159.148C9.31376 158.515 8.81775 157.503 9.12875 156.269C9.83675 153.245 12.3787 152.583 13.2977 152.583H42.7357H49.5238H84.2378ZM84.2378 152.112C83.4918 152.112 61.0967 152.112 49.5227 152.112C49.5227 152.112 46.7867 152.112 42.7347 152.112C31.1617 152.112 14.0487 152.112 13.2967 152.112C12.2857 152.112 9.44677 152.84 8.66977 156.161C7.99877 158.817 10.5818 160.953 11.6438 160.999C11.9118 161.002 16.0527 161.002 21.6167 161.002C29.2077 161.002 39.4518 161.001 46.1328 160.999C52.8108 161.001 64.8137 161.002 73.8907 161.002C80.5437 161.002 85.6277 161.002 85.8947 160.999C86.9587 160.952 89.5437 158.816 88.8717 156.161C88.0977 152.84 85.2508 152.112 84.2378 152.112Z" fill="#A6A8AB"/>
<path d="M13.8106 150.135C-1.58339 129.117 -9.28543 41.7759 26.1926 15.3019C34.4716 9.12094 45.9876 5.43097 56.9926 5.43097C61.1816 5.43097 65.1366 5.98593 68.4246 7.03693L68.5736 7.08392L68.6746 6.96594C70.4346 4.92494 72.4745 3.07694 75.0895 1.15894C80.4855 5.86694 79.2916 8.71595 78.1346 11.4709C77.8896 12.0589 77.6466 12.641 77.4676 13.231L77.4106 13.4169L77.5836 13.5079C79.3546 14.4359 83.7885 17.3759 86.7095 24.6049C89.8655 32.3959 99.4536 44.026 106.822 49.004C114.885 54.449 112.819 58.4749 109.961 64.0449C107.091 69.6479 103.159 73.626 102.429 74.338C100.596 73.389 99.3746 72.436 98.1936 71.512C96.6196 70.285 95.1356 69.1259 92.4096 68.0809C90.3226 67.2789 87.8355 66.8729 85.0175 66.8729C81.6875 66.8729 77.9626 67.4289 73.9476 68.5269C72.3626 68.9609 70.8625 69.1799 69.4915 69.1799C59.3995 69.1799 58.6886 57.7579 58.6406 56.4559C58.5786 54.8069 57.5286 53.9169 56.5706 53.9169C55.6206 53.9169 54.4875 54.7609 54.4235 57.1389C53.8025 80.5199 71.2205 105.413 87.7045 118.698L83.7656 150.133H13.8106V150.135Z" fill="url(#paint4_linear_15_501)"/>
<path d="M75.0759 1.46088C80.1829 5.97888 79.0809 8.60486 77.9169 11.3809C77.6749 11.9609 77.4248 12.5589 77.2408 13.1629L77.1289 13.5369L77.4729 13.7179C79.2209 14.6339 83.5989 17.5378 86.4929 24.6938C89.6619 32.5198 99.2909 44.2009 106.692 49.1999C114.581 54.5289 112.555 58.4759 109.751 63.9399C107.03 69.2519 103.346 73.0959 102.386 74.0509C100.657 73.1389 99.4789 72.2199 98.3369 71.3289C96.7499 70.0899 95.2519 68.9199 92.4939 67.8629C90.3799 67.0509 87.8648 66.6389 85.0168 66.6389C81.6648 66.6389 77.9189 67.1979 73.8839 68.3009C72.3199 68.7289 70.8419 68.9469 69.4899 68.9469C59.6189 68.9469 58.9209 57.7279 58.8749 56.4479C58.8069 54.6519 57.6378 53.6829 56.5688 53.6829C55.5118 53.6829 54.2559 54.5859 54.1869 57.1339C53.5649 80.5469 70.9548 105.46 87.4538 118.8L83.5569 149.899H13.9309C-1.38011 128.761 -8.99711 41.8549 26.3319 15.4889C34.5739 9.33789 46.0348 5.66486 56.9918 5.66486C61.1578 5.66486 65.0869 6.21686 68.3519 7.26086L68.6478 7.3559L68.8508 7.11987C70.5638 5.13287 72.5499 3.32788 75.0759 1.46088ZM75.1019 0.858887C72.8849 2.47389 70.6008 4.36989 68.4968 6.81189C65.1518 5.74289 61.2129 5.19385 56.9929 5.19385C46.8539 5.19385 35.0898 8.36388 26.0528 15.1119C-9.69216 41.7869 -1.62915 129.682 13.6929 150.369H83.9729L87.9548 118.598C71.5158 105.395 54.0358 80.5909 54.6578 57.1469C54.7138 55.0599 55.6488 54.1539 56.5698 54.1539C57.4668 54.1539 58.3499 55.0089 58.4049 56.4659C58.5859 61.3699 61.0518 69.4169 69.4908 69.4169C70.8408 69.4169 72.3409 69.2119 74.0099 68.7549C77.7719 67.7279 81.5508 67.1099 85.0178 67.1099C87.6878 67.1099 90.1739 67.4759 92.3259 68.3019C97.1459 70.1489 98.0849 72.3959 102.472 74.6249C102.472 74.6249 106.956 70.4309 110.172 64.1529C113.145 58.3609 115.01 54.2489 106.956 48.8089C99.8779 44.0279 90.2099 32.6139 86.9299 24.5169C84.4339 18.3399 80.6128 14.8299 77.6938 13.2999C78.7288 9.88587 81.9569 6.75689 75.1019 0.858887Z" fill="#A6A8AB"/>
<path d="M2.00391 220.574C2.02391 219.649 2.13691 216.242 2.85791 214.434C3.68891 212.359 6.17993 210.391 6.20593 210.372L89.8408 210.421C89.7948 210.456 92.2369 212.648 92.9429 214.576C93.5629 216.278 93.8269 219.635 93.8909 220.573H2.00391V220.574Z" fill="url(#paint5_linear_15_501)"/>
<path d="M89.6606 210.657C90.1796 211.139 92.1156 213.008 92.7186 214.657C93.2806 216.204 93.5496 219.165 93.6366 220.339H2.24463C2.27563 219.179 2.42168 216.164 3.07568 214.522C3.77668 212.772 5.71768 211.08 6.22668 210.658H89.6606V210.657ZM89.8436 210.187H6.06067C6.06067 210.187 3.50267 212.189 2.63867 214.348C1.77867 216.508 1.76562 220.81 1.76562 220.81H94.1396C94.1396 220.81 93.9026 216.534 93.1616 214.497C92.4156 212.456 89.8436 210.187 89.8436 210.187Z" fill="#A6A8AB"/>
<path d="M6.76088 208.336C2.56888 202.519 0.395893 194.241 0.947893 186.164C1.45189 178.685 6.16392 171.053 9.94692 164.919C10.4459 164.113 10.9288 163.329 11.3878 162.571H85.4498C88.7838 167.854 94.3809 178.056 94.9599 187.823C95.4159 195.584 93.5119 202.296 89.1399 208.336H6.76088Z" fill="url(#paint6_linear_15_501)"/>
<path d="M85.3187 162.806C88.6497 168.1 94.1527 178.189 94.7237 187.836C95.1747 195.5 93.3077 202.131 89.0167 208.101H6.8807C2.7647 202.332 0.635773 194.159 1.17977 186.179C1.68177 178.759 6.37469 171.154 10.1467 165.044C10.6207 164.276 11.0807 163.53 11.5197 162.807H85.3187V162.806ZM85.5777 162.335H11.2557C7.2437 168.975 1.28976 177.588 0.711756 186.147C0.127756 194.71 2.57171 202.982 6.64071 208.571H89.2597C93.3327 202.983 95.6908 196.237 95.1958 187.808C94.6808 179.135 90.2077 169.64 85.5777 162.335Z" fill="#A6A8AB"/>
<path d="M11.6461 160.765C11.1781 160.744 10.2541 160.173 9.5941 159.287C9.0941 158.613 8.56506 157.533 8.89806 156.219C9.64306 153.043 12.3271 152.347 13.2971 152.347H84.2372C85.2112 152.347 87.9011 153.042 88.6391 156.214C88.9751 157.532 88.4471 158.611 87.9471 159.285C87.2871 160.173 86.3622 160.743 85.8832 160.764C85.6252 160.766 80.5521 160.766 73.9051 160.766C73.9061 160.767 11.9141 160.767 11.6461 160.765Z" fill="url(#paint7_linear_15_501)"/>
<path d="M84.2378 152.583C85.1608 152.583 87.7068 153.245 88.4148 156.277C88.7258 157.502 88.2288 158.512 87.7588 159.145C87.1058 160.023 86.2427 160.514 85.8917 160.529C85.6237 160.532 80.5427 160.532 73.8907 160.532L46.1328 160.529L21.6167 160.532C16.0547 160.532 11.9167 160.532 11.6657 160.529C11.2957 160.514 10.4368 160.024 9.78476 159.148C9.31376 158.515 8.81775 157.503 9.12875 156.269C9.83675 153.245 12.3787 152.583 13.2977 152.583H42.7357H49.5238H84.2378ZM84.2378 152.112C83.4918 152.112 61.0967 152.112 49.5227 152.112C49.5227 152.112 46.7867 152.112 42.7347 152.112C31.1617 152.112 14.0487 152.112 13.2967 152.112C12.2857 152.112 9.44677 152.84 8.66977 156.161C7.99877 158.817 10.5818 160.953 11.6438 160.999C11.9118 161.002 16.0527 161.002 21.6167 161.002C29.2077 161.002 39.4518 161.001 46.1328 160.999C52.8108 161.001 64.8137 161.002 73.8907 161.002C80.5437 161.002 85.6277 161.002 85.8947 160.999C86.9587 160.952 89.5437 158.816 88.8717 156.161C88.0977 152.84 85.2508 152.112 84.2378 152.112Z" fill="#A6A8AB"/>
<defs>
<linearGradient id="paint0_linear_15_501" x1="0.652294" y1="75.6924" x2="112.278" y2="75.6924" gradientUnits="userSpaceOnUse">
<stop stop-color="#CBCCCD"/>
<stop offset="0.6606" stop-color="#EBEBEB"/>
<stop offset="1" stop-color="white"/>
</linearGradient>
<linearGradient id="paint1_linear_15_501" x1="1.987" y1="215.495" x2="93.8838" y2="215.495" gradientUnits="userSpaceOnUse">
<stop stop-color="#CBCCCD"/>
<stop offset="0.6606" stop-color="#EBEBEB"/>
<stop offset="1" stop-color="white"/>
</linearGradient>
<linearGradient id="paint2_linear_15_501" x1="1.64637" y1="185.415" x2="95.7963" y2="185.415" gradientUnits="userSpaceOnUse">
<stop stop-color="#CBCCCD"/>
<stop offset="0.6606" stop-color="#EBEBEB"/>
<stop offset="1" stop-color="white"/>
</linearGradient>
<linearGradient id="paint3_linear_15_501" x1="8.37142" y1="156.534" x2="88.3122" y2="156.534" gradientUnits="userSpaceOnUse">
<stop stop-color="#CBCCCD"/>
<stop offset="0.6606" stop-color="#EBEBEB"/>
<stop offset="1" stop-color="white"/>
</linearGradient>
<linearGradient id="paint4_linear_15_501" x1="0.652294" y1="75.6924" x2="112.278" y2="75.6924" gradientUnits="userSpaceOnUse">
<stop stop-color="#CBCCCD"/>
<stop offset="0.6606" stop-color="#EBEBEB"/>
<stop offset="1" stop-color="white"/>
</linearGradient>
<linearGradient id="paint5_linear_15_501" x1="1.987" y1="215.495" x2="93.8838" y2="215.495" gradientUnits="userSpaceOnUse">
<stop stop-color="#CBCCCD"/>
<stop offset="0.6606" stop-color="#EBEBEB"/>
<stop offset="1" stop-color="white"/>
</linearGradient>
<linearGradient id="paint6_linear_15_501" x1="1.64637" y1="185.415" x2="95.7963" y2="185.415" gradientUnits="userSpaceOnUse">
<stop stop-color="#CBCCCD"/>
<stop offset="0.6606" stop-color="#EBEBEB"/>
<stop offset="1" stop-color="white"/>
</linearGradient>
<linearGradient id="paint7_linear_15_501" x1="8.37142" y1="156.534" x2="88.3122" y2="156.534" gradientUnits="userSpaceOnUse">
<stop stop-color="#CBCCCD"/>
<stop offset="0.6606" stop-color="#EBEBEB"/>
<stop offset="1" stop-color="white"/>
</linearGradient>
</defs>
</svg>
